<mxfile host="65bd71144e">
    <diagram id="AAQYNpDCtthmYUMKNkJq" name="Step 1 - Cloude diagram">
        <mxGraphModel dx="740" dy="580" grid="1" gridSize="10" guides="1" tooltips="1" connect="1" arrows="1" fold="1" page="1" pageScale="1" pageWidth="827" pageHeight="1169" math="0" shadow="0">
            <root>
                <mxCell id="0"/>
                <mxCell id="1" parent="0"/>
                <mxCell id="2" value="" style="verticalLabelPosition=bottom;verticalAlign=top;html=1;shadow=0;dashed=0;strokeWidth=1;shape=mxgraph.android.contact_badge_normal;sketch=0;" vertex="1" parent="1">
                    <mxGeometry x="240" y="310" width="90" height="100" as="geometry"/>
                </mxCell>
                <mxCell id="3" value="Producer" style="ellipse;shape=cloud;whiteSpace=wrap;html=1;align=center;" vertex="1" parent="1">
                    <mxGeometry x="40" y="60" width="140" height="90" as="geometry"/>
                </mxCell>
                <mxCell id="4" value="Product" style="ellipse;shape=cloud;whiteSpace=wrap;html=1;align=center;" vertex="1" parent="1">
                    <mxGeometry x="80" y="140" width="120" height="80" as="geometry"/>
                </mxCell>
                <mxCell id="5" value="Customer" style="ellipse;shape=cloud;whiteSpace=wrap;html=1;align=center;" vertex="1" parent="1">
                    <mxGeometry x="400" y="40" width="130" height="80" as="geometry"/>
                </mxCell>
                <mxCell id="6" value="Account" style="ellipse;shape=cloud;whiteSpace=wrap;html=1;align=center;" vertex="1" parent="1">
                    <mxGeometry x="300" y="75" width="120" height="80" as="geometry"/>
                </mxCell>
                <mxCell id="7" value="Payment" style="ellipse;shape=cloud;whiteSpace=wrap;html=1;align=center;" vertex="1" parent="1">
                    <mxGeometry x="310" y="150" width="120" height="70" as="geometry"/>
                </mxCell>
                <mxCell id="8" value="Order" style="ellipse;shape=cloud;whiteSpace=wrap;html=1;align=center;" vertex="1" parent="1">
                    <mxGeometry x="190" y="120" width="140" height="70" as="geometry"/>
                </mxCell>
                <mxCell id="10" value="Invoice" style="ellipse;shape=cloud;whiteSpace=wrap;html=1;align=center;" vertex="1" parent="1">
                    <mxGeometry x="230" y="180" width="100" height="60" as="geometry"/>
                </mxCell>
                <mxCell id="13" value="Shipment" style="ellipse;shape=cloud;whiteSpace=wrap;html=1;align=center;" vertex="1" parent="1">
                    <mxGeometry x="190" y="240" width="100" height="60" as="geometry"/>
                </mxCell>
                <mxCell id="14" value="Transport" style="ellipse;shape=cloud;whiteSpace=wrap;html=1;align=center;" vertex="1" parent="1">
                    <mxGeometry x="280" y="230" width="100" height="60" as="geometry"/>
                </mxCell>
                <mxCell id="16" value="Warehouse" style="ellipse;shape=cloud;whiteSpace=wrap;html=1;align=center;" vertex="1" parent="1">
                    <mxGeometry x="170" y="200" width="80" height="50" as="geometry"/>
                </mxCell>
                <mxCell id="35Kv95FUSAFrcz4VdqBI-16" value="Production" style="ellipse;shape=cloud;whiteSpace=wrap;html=1;align=center;" vertex="1" parent="1">
                    <mxGeometry x="140" y="110" width="100" height="60" as="geometry"/>
                </mxCell>
            </root>
        </mxGraphModel>
    </diagram>
    <diagram id="8bYVHgkn_HEzqaiWsYZV" name="Step 2 - ER diagram">
        <mxGraphModel dx="987" dy="773" grid="1" gridSize="10" guides="1" tooltips="1" connect="1" arrows="1" fold="1" page="1" pageScale="1" pageWidth="827" pageHeight="1169" math="0" shadow="0">
            <root>
                <mxCell id="URiuZW0JQTmLM7qLeaez-0"/>
                <mxCell id="URiuZW0JQTmLM7qLeaez-1" parent="URiuZW0JQTmLM7qLeaez-0"/>
                <mxCell id="Gkx_dvRhApPvnkOMB_CI-0" value="Producer" style="ellipse;shape=cloud;whiteSpace=wrap;html=1;align=center;" vertex="1" parent="URiuZW0JQTmLM7qLeaez-1">
                    <mxGeometry x="50" y="50" width="100" height="70" as="geometry"/>
                </mxCell>
                <mxCell id="Gkx_dvRhApPvnkOMB_CI-1" value="Product" style="ellipse;shape=cloud;whiteSpace=wrap;html=1;align=center;" vertex="1" parent="URiuZW0JQTmLM7qLeaez-1">
                    <mxGeometry x="40" y="180" width="120" height="80" as="geometry"/>
                </mxCell>
                <mxCell id="Gkx_dvRhApPvnkOMB_CI-2" value="Customer" style="ellipse;shape=cloud;whiteSpace=wrap;html=1;align=center;" vertex="1" parent="URiuZW0JQTmLM7qLeaez-1">
                    <mxGeometry x="610" y="80" width="130" height="80" as="geometry"/>
                </mxCell>
                <mxCell id="Gkx_dvRhApPvnkOMB_CI-3" value="Account" style="ellipse;shape=cloud;whiteSpace=wrap;html=1;align=center;" vertex="1" parent="URiuZW0JQTmLM7qLeaez-1">
                    <mxGeometry x="540" y="170" width="104" height="70" as="geometry"/>
                </mxCell>
                <mxCell id="Gkx_dvRhApPvnkOMB_CI-4" value="Payment" style="ellipse;shape=cloud;whiteSpace=wrap;html=1;align=center;" vertex="1" parent="URiuZW0JQTmLM7qLeaez-1">
                    <mxGeometry x="644" y="260" width="120" height="70" as="geometry"/>
                </mxCell>
                <mxCell id="Gkx_dvRhApPvnkOMB_CI-5" value="Order" style="ellipse;shape=cloud;whiteSpace=wrap;html=1;align=center;" vertex="1" parent="URiuZW0JQTmLM7qLeaez-1">
                    <mxGeometry x="180" y="290" width="140" height="70" as="geometry"/>
                </mxCell>
                <mxCell id="Gkx_dvRhApPvnkOMB_CI-6" value="Invoice" style="ellipse;shape=cloud;whiteSpace=wrap;html=1;align=center;" vertex="1" parent="URiuZW0JQTmLM7qLeaez-1">
                    <mxGeometry x="370" y="200" width="100" height="60" as="geometry"/>
                </mxCell>
                <mxCell id="Gkx_dvRhApPvnkOMB_CI-7" value="Shipment" style="ellipse;shape=cloud;whiteSpace=wrap;html=1;align=center;" vertex="1" parent="URiuZW0JQTmLM7qLeaez-1">
                    <mxGeometry x="400" y="290" width="100" height="60" as="geometry"/>
                </mxCell>
                <mxCell id="Gkx_dvRhApPvnkOMB_CI-8" value="Transport" style="ellipse;shape=cloud;whiteSpace=wrap;html=1;align=center;" vertex="1" parent="URiuZW0JQTmLM7qLeaez-1">
                    <mxGeometry x="510" y="380" width="100" height="60" as="geometry"/>
                </mxCell>
                <mxCell id="Gkx_dvRhApPvnkOMB_CI-9" value="Warehouse" style="ellipse;shape=cloud;whiteSpace=wrap;html=1;align=center;" vertex="1" parent="URiuZW0JQTmLM7qLeaez-1">
                    <mxGeometry x="20" y="300" width="80" height="50" as="geometry"/>
                </mxCell>
                <mxCell id="Gkx_dvRhApPvnkOMB_CI-10" value="Country" style="ellipse;whiteSpace=wrap;html=1;align=center;" vertex="1" parent="URiuZW0JQTmLM7qLeaez-1">
                    <mxGeometry x="130" y="60" width="80" height="30" as="geometry"/>
                </mxCell>
                <mxCell id="Gkx_dvRhApPvnkOMB_CI-11" value="Name" style="ellipse;whiteSpace=wrap;html=1;align=center;" vertex="1" parent="URiuZW0JQTmLM7qLeaez-1">
                    <mxGeometry x="80" y="40" width="80" height="30" as="geometry"/>
                </mxCell>
                <mxCell id="Gkx_dvRhApPvnkOMB_CI-12" value="ID_PR" style="ellipse;whiteSpace=wrap;html=1;align=center;" vertex="1" parent="URiuZW0JQTmLM7qLeaez-1">
                    <mxGeometry x="10" y="40" width="70" height="30" as="geometry"/>
                </mxCell>
                <mxCell id="Gkx_dvRhApPvnkOMB_CI-13" value="" style="edgeStyle=entityRelationEdgeStyle;fontSize=12;html=1;endArrow=ERoneToMany;startArrow=ERoneToMany;entryX=0.55;entryY=0.95;entryDx=0;entryDy=0;entryPerimeter=0;" edge="1" parent="URiuZW0JQTmLM7qLeaez-1" source="Gkx_dvRhApPvnkOMB_CI-1" target="Gkx_dvRhApPvnkOMB_CI-0">
                    <mxGeometry width="100" height="100" relative="1" as="geometry">
                        <mxPoint x="330" y="350" as="sourcePoint"/>
                        <mxPoint x="430" y="250" as="targetPoint"/>
                    </mxGeometry>
                </mxCell>
                <mxCell id="Gkx_dvRhApPvnkOMB_CI-14" value="ID_PRO" style="ellipse;whiteSpace=wrap;html=1;align=center;" vertex="1" parent="URiuZW0JQTmLM7qLeaez-1">
                    <mxGeometry x="10" y="170" width="70" height="30" as="geometry"/>
                </mxCell>
                <mxCell id="Gkx_dvRhApPvnkOMB_CI-15" value="Name" style="ellipse;whiteSpace=wrap;html=1;align=center;" vertex="1" parent="URiuZW0JQTmLM7qLeaez-1">
                    <mxGeometry x="70" y="160" width="80" height="30" as="geometry"/>
                </mxCell>
                <mxCell id="Gkx_dvRhApPvnkOMB_CI-16" value="Produce" style="shape=rhombus;perimeter=rhombusPerimeter;whiteSpace=wrap;html=1;align=center;" vertex="1" parent="URiuZW0JQTmLM7qLeaez-1">
                    <mxGeometry x="140" y="120" width="90" height="50" as="geometry"/>
                </mxCell>
                <mxCell id="_C98HSTa36KSOrjDcHUs-0" value="Production" style="ellipse;shape=cloud;whiteSpace=wrap;html=1;align=center;" vertex="1" parent="URiuZW0JQTmLM7qLeaez-1">
                    <mxGeometry x="180" y="150" width="80" height="50" as="geometry"/>
                </mxCell>
                <mxCell id="_C98HSTa36KSOrjDcHUs-1" value="ID_PR" style="ellipse;whiteSpace=wrap;html=1;align=center;" vertex="1" parent="URiuZW0JQTmLM7qLeaez-1">
                    <mxGeometry x="230" y="160" width="40" height="20" as="geometry"/>
                </mxCell>
                <mxCell id="_C98HSTa36KSOrjDcHUs-2" value="ID_PRO" style="ellipse;whiteSpace=wrap;html=1;align=center;" vertex="1" parent="URiuZW0JQTmLM7qLeaez-1">
                    <mxGeometry x="230" y="180" width="40" height="20" as="geometry"/>
                </mxCell>
                <mxCell id="_C98HSTa36KSOrjDcHUs-4" value="Ordered" style="shape=rhombus;perimeter=rhombusPerimeter;whiteSpace=wrap;html=1;align=center;" vertex="1" parent="URiuZW0JQTmLM7qLeaez-1">
                    <mxGeometry x="140" y="250" width="80" height="40" as="geometry"/>
                </mxCell>
                <mxCell id="_C98HSTa36KSOrjDcHUs-5" value="" style="edgeStyle=entityRelationEdgeStyle;fontSize=12;html=1;endArrow=ERmany;startArrow=ERmany;exitX=0.74;exitY=0.93;exitDx=0;exitDy=0;exitPerimeter=0;entryX=0.07;entryY=0.4;entryDx=0;entryDy=0;entryPerimeter=0;" edge="1" parent="URiuZW0JQTmLM7qLeaez-1" source="Gkx_dvRhApPvnkOMB_CI-1" target="Gkx_dvRhApPvnkOMB_CI-5">
                    <mxGeometry width="100" height="100" relative="1" as="geometry">
                        <mxPoint x="230" y="320" as="sourcePoint"/>
                        <mxPoint x="330" y="220" as="targetPoint"/>
                    </mxGeometry>
                </mxCell>
                <mxCell id="_C98HSTa36KSOrjDcHUs-8" value="" style="edgeStyle=entityRelationEdgeStyle;fontSize=12;html=1;endArrow=ERmany;entryX=0.625;entryY=0.2;entryDx=0;entryDy=0;entryPerimeter=0;exitX=0.13;exitY=0.77;exitDx=0;exitDy=0;exitPerimeter=0;" edge="1" parent="URiuZW0JQTmLM7qLeaez-1" source="Gkx_dvRhApPvnkOMB_CI-1" target="Gkx_dvRhApPvnkOMB_CI-9">
                    <mxGeometry width="100" height="100" relative="1" as="geometry">
                        <mxPoint x="230" y="320" as="sourcePoint"/>
                        <mxPoint x="330" y="220" as="targetPoint"/>
                    </mxGeometry>
                </mxCell>
                <mxCell id="_C98HSTa36KSOrjDcHUs-9" value="Country" style="ellipse;whiteSpace=wrap;html=1;align=center;" vertex="1" parent="URiuZW0JQTmLM7qLeaez-1">
                    <mxGeometry x="60" y="340" width="60" height="30" as="geometry"/>
                </mxCell>
                <mxCell id="_C98HSTa36KSOrjDcHUs-10" value="Name" style="ellipse;whiteSpace=wrap;html=1;align=center;" vertex="1" parent="URiuZW0JQTmLM7qLeaez-1">
                    <mxGeometry y="340" width="60" height="30" as="geometry"/>
                </mxCell>
                <mxCell id="_C98HSTa36KSOrjDcHUs-11" value="Name" style="ellipse;whiteSpace=wrap;html=1;align=center;" vertex="1" parent="URiuZW0JQTmLM7qLeaez-1">
                    <mxGeometry x="580" y="70" width="80" height="30" as="geometry"/>
                </mxCell>
                <mxCell id="_C98HSTa36KSOrjDcHUs-12" value="E.mail" style="ellipse;whiteSpace=wrap;html=1;align=center;" vertex="1" parent="URiuZW0JQTmLM7qLeaez-1">
                    <mxGeometry x="554" y="90" width="80" height="30" as="geometry"/>
                </mxCell>
                <mxCell id="_C98HSTa36KSOrjDcHUs-13" value="ID_CU" style="ellipse;whiteSpace=wrap;html=1;align=center;" vertex="1" parent="URiuZW0JQTmLM7qLeaez-1">
                    <mxGeometry x="644" y="60" width="80" height="30" as="geometry"/>
                </mxCell>
                <mxCell id="_C98HSTa36KSOrjDcHUs-14" value="User_name" style="ellipse;whiteSpace=wrap;html=1;align=center;" vertex="1" parent="URiuZW0JQTmLM7qLeaez-1">
                    <mxGeometry x="700" y="80" width="80" height="30" as="geometry"/>
                </mxCell>
                <mxCell id="_C98HSTa36KSOrjDcHUs-15" value="Adrees" style="ellipse;whiteSpace=wrap;html=1;align=center;" vertex="1" parent="URiuZW0JQTmLM7qLeaez-1">
                    <mxGeometry x="710" y="110" width="80" height="30" as="geometry"/>
                </mxCell>
                <mxCell id="_C98HSTa36KSOrjDcHUs-16" value="Country" style="ellipse;whiteSpace=wrap;html=1;align=center;" vertex="1" parent="URiuZW0JQTmLM7qLeaez-1">
                    <mxGeometry x="710" y="140" width="80" height="30" as="geometry"/>
                </mxCell>
                <mxCell id="_C98HSTa36KSOrjDcHUs-17" value="" style="edgeStyle=entityRelationEdgeStyle;fontSize=12;html=1;endArrow=ERmandOne;startArrow=ERmandOne;entryX=0.13;entryY=0.77;entryDx=0;entryDy=0;entryPerimeter=0;exitX=0.88;exitY=0.25;exitDx=0;exitDy=0;exitPerimeter=0;" edge="1" parent="URiuZW0JQTmLM7qLeaez-1" source="Gkx_dvRhApPvnkOMB_CI-3" target="Gkx_dvRhApPvnkOMB_CI-2">
                    <mxGeometry width="100" height="100" relative="1" as="geometry">
                        <mxPoint x="420" y="320" as="sourcePoint"/>
                        <mxPoint x="520" y="220" as="targetPoint"/>
                    </mxGeometry>
                </mxCell>
                <mxCell id="_C98HSTa36KSOrjDcHUs-18" value="fk_ID_CU" style="ellipse;whiteSpace=wrap;html=1;align=center;" vertex="1" parent="URiuZW0JQTmLM7qLeaez-1">
                    <mxGeometry x="540" y="165" width="54" height="20" as="geometry"/>
                </mxCell>
                <mxCell id="_C98HSTa36KSOrjDcHUs-19" value="ID_ACC" style="ellipse;whiteSpace=wrap;html=1;align=center;" vertex="1" parent="URiuZW0JQTmLM7qLeaez-1">
                    <mxGeometry x="504" y="180" width="54" height="20" as="geometry"/>
                </mxCell>
                <mxCell id="_C98HSTa36KSOrjDcHUs-20" value="fk_ID_PA" style="ellipse;whiteSpace=wrap;html=1;align=center;" vertex="1" parent="URiuZW0JQTmLM7qLeaez-1">
                    <mxGeometry x="634" y="210" width="54" height="20" as="geometry"/>
                </mxCell>
                <mxCell id="_C98HSTa36KSOrjDcHUs-21" value="ID_PA" style="ellipse;whiteSpace=wrap;html=1;align=center;" vertex="1" parent="URiuZW0JQTmLM7qLeaez-1">
                    <mxGeometry x="688" y="250" width="54" height="20" as="geometry"/>
                </mxCell>
                <mxCell id="_C98HSTa36KSOrjDcHUs-22" value="Way_of_payment" style="ellipse;whiteSpace=wrap;html=1;align=center;" vertex="1" parent="URiuZW0JQTmLM7qLeaez-1">
                    <mxGeometry x="750" y="250" width="70" height="40" as="geometry"/>
                </mxCell>
                <mxCell id="_C98HSTa36KSOrjDcHUs-23" value="" style="edgeStyle=entityRelationEdgeStyle;fontSize=12;html=1;endArrow=ERmandOne;startArrow=ERmandOne;entryX=0.7;entryY=0.966;entryDx=0;entryDy=0;entryPerimeter=0;exitX=0.07;exitY=0.4;exitDx=0;exitDy=0;exitPerimeter=0;" edge="1" parent="URiuZW0JQTmLM7qLeaez-1" source="Gkx_dvRhApPvnkOMB_CI-4" target="Gkx_dvRhApPvnkOMB_CI-3">
                    <mxGeometry width="100" height="100" relative="1" as="geometry">
                        <mxPoint x="490" y="320" as="sourcePoint"/>
                        <mxPoint x="590" y="220" as="targetPoint"/>
                    </mxGeometry>
                </mxCell>
                <mxCell id="_C98HSTa36KSOrjDcHUs-25" value="ID_OR" style="ellipse;whiteSpace=wrap;html=1;align=center;fontStyle=4;" vertex="1" parent="URiuZW0JQTmLM7qLeaez-1">
                    <mxGeometry x="240" y="260" width="100" height="40" as="geometry"/>
                </mxCell>
                <mxCell id="_C98HSTa36KSOrjDcHUs-26" value="fk_ID_PRO" style="ellipse;whiteSpace=wrap;html=1;align=center;" vertex="1" parent="URiuZW0JQTmLM7qLeaez-1">
                    <mxGeometry x="300" y="300" width="50" height="20" as="geometry"/>
                </mxCell>
                <mxCell id="_C98HSTa36KSOrjDcHUs-29" value="" style="edgeStyle=entityRelationEdgeStyle;fontSize=12;html=1;endArrow=ERmandOne;startArrow=ERmandOne;entryX=0.077;entryY=0.68;entryDx=0;entryDy=0;entryPerimeter=0;exitX=0.875;exitY=0.5;exitDx=0;exitDy=0;exitPerimeter=0;" edge="1" parent="URiuZW0JQTmLM7qLeaez-1" source="Gkx_dvRhApPvnkOMB_CI-6" target="Gkx_dvRhApPvnkOMB_CI-3">
                    <mxGeometry width="100" height="100" relative="1" as="geometry">
                        <mxPoint x="410" y="330" as="sourcePoint"/>
                        <mxPoint x="510" y="230" as="targetPoint"/>
                    </mxGeometry>
                </mxCell>
                <mxCell id="_C98HSTa36KSOrjDcHUs-30" value="fk_ID_OR" style="ellipse;whiteSpace=wrap;html=1;align=center;fontStyle=4;" vertex="1" parent="URiuZW0JQTmLM7qLeaez-1">
                    <mxGeometry x="334" y="185" width="80" height="30" as="geometry"/>
                </mxCell>
                <mxCell id="_C98HSTa36KSOrjDcHUs-33" value="fk_ID_ACC" style="ellipse;whiteSpace=wrap;html=1;align=center;fontStyle=4;" vertex="1" parent="URiuZW0JQTmLM7qLeaez-1">
                    <mxGeometry x="420" y="190" width="80" height="30" as="geometry"/>
                </mxCell>
                <mxCell id="_C98HSTa36KSOrjDcHUs-34" value="" style="edgeStyle=entityRelationEdgeStyle;fontSize=12;html=1;endArrow=ERmandOne;startArrow=ERmandOne;entryX=0.31;entryY=0.8;entryDx=0;entryDy=0;entryPerimeter=0;exitX=0.926;exitY=0.737;exitDx=0;exitDy=0;exitPerimeter=0;" edge="1" parent="URiuZW0JQTmLM7qLeaez-1" source="Gkx_dvRhApPvnkOMB_CI-5" target="Gkx_dvRhApPvnkOMB_CI-6">
                    <mxGeometry width="100" height="100" relative="1" as="geometry">
                        <mxPoint x="320" y="370" as="sourcePoint"/>
                        <mxPoint x="420" y="270" as="targetPoint"/>
                    </mxGeometry>
                </mxCell>
                <mxCell id="_C98HSTa36KSOrjDcHUs-36" value="" style="edgeStyle=entityRelationEdgeStyle;fontSize=12;html=1;endArrow=ERmandOne;startArrow=ERmandOne;entryX=0.55;entryY=0.95;entryDx=0;entryDy=0;entryPerimeter=0;exitX=0.4;exitY=0.1;exitDx=0;exitDy=0;exitPerimeter=0;" edge="1" parent="URiuZW0JQTmLM7qLeaez-1" source="Gkx_dvRhApPvnkOMB_CI-7" target="Gkx_dvRhApPvnkOMB_CI-6">
                    <mxGeometry width="100" height="100" relative="1" as="geometry">
                        <mxPoint x="320" y="370" as="sourcePoint"/>
                        <mxPoint x="420" y="270" as="targetPoint"/>
                    </mxGeometry>
                </mxCell>
                <mxCell id="_C98HSTa36KSOrjDcHUs-37" value="ID_IN" style="ellipse;whiteSpace=wrap;html=1;align=center;fontStyle=4;" vertex="1" parent="URiuZW0JQTmLM7qLeaez-1">
                    <mxGeometry x="320" y="215" width="80" height="30" as="geometry"/>
                </mxCell>
                <mxCell id="_C98HSTa36KSOrjDcHUs-38" value="fk_ID_IN" style="ellipse;whiteSpace=wrap;html=1;align=center;fontStyle=4;" vertex="1" parent="URiuZW0JQTmLM7qLeaez-1">
                    <mxGeometry x="460" y="285" width="70" height="20" as="geometry"/>
                </mxCell>
                <mxCell id="_C98HSTa36KSOrjDcHUs-39" value="fk_ID_CU" style="ellipse;whiteSpace=wrap;html=1;align=center;" vertex="1" parent="URiuZW0JQTmLM7qLeaez-1">
                    <mxGeometry x="486" y="305" width="54" height="20" as="geometry"/>
                </mxCell>
                <mxCell id="_C98HSTa36KSOrjDcHUs-41" value="" style="edgeStyle=entityRelationEdgeStyle;fontSize=12;html=1;endArrow=ERoneToMany;entryX=0.8;entryY=0.8;entryDx=0;entryDy=0;entryPerimeter=0;exitX=0.4;exitY=0.1;exitDx=0;exitDy=0;exitPerimeter=0;" edge="1" parent="URiuZW0JQTmLM7qLeaez-1" source="Gkx_dvRhApPvnkOMB_CI-8" target="Gkx_dvRhApPvnkOMB_CI-7">
                    <mxGeometry width="100" height="100" relative="1" as="geometry">
                        <mxPoint x="480" y="350" as="sourcePoint"/>
                        <mxPoint x="580" y="250" as="targetPoint"/>
                    </mxGeometry>
                </mxCell>
                <mxCell id="_C98HSTa36KSOrjDcHUs-42" value="ID_SH" style="ellipse;whiteSpace=wrap;html=1;align=center;" vertex="1" parent="URiuZW0JQTmLM7qLeaez-1">
                    <mxGeometry x="370" y="340" width="70" height="30" as="geometry"/>
                </mxCell>
                <mxCell id="_C98HSTa36KSOrjDcHUs-43" value="fk_ID_SH" style="ellipse;whiteSpace=wrap;html=1;align=center;" vertex="1" parent="URiuZW0JQTmLM7qLeaez-1">
                    <mxGeometry x="554" y="360" width="70" height="30" as="geometry"/>
                </mxCell>
                <mxCell id="_C98HSTa36KSOrjDcHUs-46" value="Name" style="ellipse;whiteSpace=wrap;html=1;align=center;" vertex="1" parent="URiuZW0JQTmLM7qLeaez-1">
                    <mxGeometry x="460" y="395" width="60" height="30" as="geometry"/>
                </mxCell>
            </root>
        </mxGraphModel>
    </diagram>
    <diagram id="0YMi3j_ia87j5zMbxx19" name="Step-3 UML">
        <mxGraphModel dx="2941" dy="1657" grid="1" gridSize="10" guides="1" tooltips="1" connect="1" arrows="1" fold="1" page="1" pageScale="1" pageWidth="827" pageHeight="1169" math="0" shadow="0">
            <root>
                <mxCell id="GezirhydbBwE05wu2tW2-0"/>
                <mxCell id="GezirhydbBwE05wu2tW2-1" parent="GezirhydbBwE05wu2tW2-0"/>
                <mxCell id="Cv_LC8ZKEJ-u5_81ve8e-0" value="Product" style="shape=table;startSize=30;container=1;collapsible=1;childLayout=tableLayout;fixedRows=1;rowLines=0;fontStyle=1;align=center;resizeLast=1;" vertex="1" parent="GezirhydbBwE05wu2tW2-1">
                    <mxGeometry x="-700" y="420" width="140" height="150" as="geometry"/>
                </mxCell>
                <mxCell id="Cv_LC8ZKEJ-u5_81ve8e-1" value="" style="shape=partialRectangle;collapsible=0;dropTarget=0;pointerEvents=0;fillColor=none;top=0;left=0;bottom=1;right=0;points=[[0,0.5],[1,0.5]];portConstraint=eastwest;" vertex="1" parent="Cv_LC8ZKEJ-u5_81ve8e-0">
                    <mxGeometry y="30" width="140" height="30" as="geometry"/>
                </mxCell>
                <mxCell id="Cv_LC8ZKEJ-u5_81ve8e-2" value="PK" style="shape=partialRectangle;connectable=0;fillColor=none;top=0;left=0;bottom=0;right=0;fontStyle=1;overflow=hidden;" vertex="1" parent="Cv_LC8ZKEJ-u5_81ve8e-1">
                    <mxGeometry width="40" height="30" as="geometry">
                        <mxRectangle width="40" height="30" as="alternateBounds"/>
                    </mxGeometry>
                </mxCell>
                <mxCell id="Cv_LC8ZKEJ-u5_81ve8e-3" value="Product_ID : int" style="shape=partialRectangle;connectable=0;fillColor=none;top=0;left=0;bottom=0;right=0;align=left;spacingLeft=6;fontStyle=5;overflow=hidden;" vertex="1" parent="Cv_LC8ZKEJ-u5_81ve8e-1">
                    <mxGeometry x="40" width="100" height="30" as="geometry">
                        <mxRectangle width="100" height="30" as="alternateBounds"/>
                    </mxGeometry>
                </mxCell>
                <mxCell id="Cv_LC8ZKEJ-u5_81ve8e-4" value="" style="shape=partialRectangle;collapsible=0;dropTarget=0;pointerEvents=0;fillColor=none;top=0;left=0;bottom=0;right=0;points=[[0,0.5],[1,0.5]];portConstraint=eastwest;" vertex="1" parent="Cv_LC8ZKEJ-u5_81ve8e-0">
                    <mxGeometry y="60" width="140" height="30" as="geometry"/>
                </mxCell>
                <mxCell id="Cv_LC8ZKEJ-u5_81ve8e-5" value="" style="shape=partialRectangle;connectable=0;fillColor=none;top=0;left=0;bottom=0;right=0;editable=1;overflow=hidden;" vertex="1" parent="Cv_LC8ZKEJ-u5_81ve8e-4">
                    <mxGeometry width="40" height="30" as="geometry">
                        <mxRectangle width="40" height="30" as="alternateBounds"/>
                    </mxGeometry>
                </mxCell>
                <mxCell id="Cv_LC8ZKEJ-u5_81ve8e-6" value="Name: string   " style="shape=partialRectangle;connectable=0;fillColor=none;top=0;left=0;bottom=0;right=0;align=left;spacingLeft=6;overflow=hidden;" vertex="1" parent="Cv_LC8ZKEJ-u5_81ve8e-4">
                    <mxGeometry x="40" width="100" height="30" as="geometry">
                        <mxRectangle width="100" height="30" as="alternateBounds"/>
                    </mxGeometry>
                </mxCell>
                <mxCell id="Cv_LC8ZKEJ-u5_81ve8e-10" value="" style="shape=partialRectangle;collapsible=0;dropTarget=0;pointerEvents=0;fillColor=none;top=0;left=0;bottom=0;right=0;points=[[0,0.5],[1,0.5]];portConstraint=eastwest;" vertex="1" parent="Cv_LC8ZKEJ-u5_81ve8e-0">
                    <mxGeometry y="90" width="140" height="30" as="geometry"/>
                </mxCell>
                <mxCell id="Cv_LC8ZKEJ-u5_81ve8e-11" value="FK" style="shape=partialRectangle;connectable=0;fillColor=none;top=0;left=0;bottom=0;right=0;editable=1;overflow=hidden;fontStyle=1" vertex="1" parent="Cv_LC8ZKEJ-u5_81ve8e-10">
                    <mxGeometry width="40" height="30" as="geometry">
                        <mxRectangle width="40" height="30" as="alternateBounds"/>
                    </mxGeometry>
                </mxCell>
                <mxCell id="Cv_LC8ZKEJ-u5_81ve8e-12" value="Producer_ID:int" style="shape=partialRectangle;connectable=0;fillColor=none;top=0;left=0;bottom=0;right=0;align=left;spacingLeft=6;overflow=hidden;fontStyle=1" vertex="1" parent="Cv_LC8ZKEJ-u5_81ve8e-10">
                    <mxGeometry x="40" width="100" height="30" as="geometry">
                        <mxRectangle width="100" height="30" as="alternateBounds"/>
                    </mxGeometry>
                </mxCell>
                <mxCell id="Cv_LC8ZKEJ-u5_81ve8e-13" value="" style="shape=partialRectangle;collapsible=0;dropTarget=0;pointerEvents=0;fillColor=none;top=0;left=0;bottom=0;right=0;points=[[0,0.5],[1,0.5]];portConstraint=eastwest;" vertex="1" parent="Cv_LC8ZKEJ-u5_81ve8e-0">
                    <mxGeometry y="120" width="140" height="30" as="geometry"/>
                </mxCell>
                <mxCell id="Cv_LC8ZKEJ-u5_81ve8e-14" value="FK" style="shape=partialRectangle;connectable=0;fillColor=none;top=0;left=0;bottom=0;right=0;editable=1;overflow=hidden;fontStyle=1" vertex="1" parent="Cv_LC8ZKEJ-u5_81ve8e-13">
                    <mxGeometry width="40" height="30" as="geometry">
                        <mxRectangle width="40" height="30" as="alternateBounds"/>
                    </mxGeometry>
                </mxCell>
                <mxCell id="Cv_LC8ZKEJ-u5_81ve8e-15" value="Warehouse_ID:int" style="shape=partialRectangle;connectable=0;fillColor=none;top=0;left=0;bottom=0;right=0;align=left;spacingLeft=6;overflow=hidden;fontStyle=1" vertex="1" parent="Cv_LC8ZKEJ-u5_81ve8e-13">
                    <mxGeometry x="40" width="100" height="30" as="geometry">
                        <mxRectangle width="100" height="30" as="alternateBounds"/>
                    </mxGeometry>
                </mxCell>
                <mxCell id="Cv_LC8ZKEJ-u5_81ve8e-16" value="Producer" style="shape=table;startSize=30;container=1;collapsible=1;childLayout=tableLayout;fixedRows=1;rowLines=0;fontStyle=1;align=center;resizeLast=1;" vertex="1" parent="GezirhydbBwE05wu2tW2-1">
                    <mxGeometry x="-680" y="100" width="140" height="120" as="geometry"/>
                </mxCell>
                <mxCell id="Cv_LC8ZKEJ-u5_81ve8e-17" value="" style="shape=partialRectangle;collapsible=0;dropTarget=0;pointerEvents=0;fillColor=none;top=0;left=0;bottom=1;right=0;points=[[0,0.5],[1,0.5]];portConstraint=eastwest;" vertex="1" parent="Cv_LC8ZKEJ-u5_81ve8e-16">
                    <mxGeometry y="30" width="140" height="30" as="geometry"/>
                </mxCell>
                <mxCell id="Cv_LC8ZKEJ-u5_81ve8e-18" value="PK" style="shape=partialRectangle;connectable=0;fillColor=none;top=0;left=0;bottom=0;right=0;fontStyle=1;overflow=hidden;" vertex="1" parent="Cv_LC8ZKEJ-u5_81ve8e-17">
                    <mxGeometry width="40" height="30" as="geometry">
                        <mxRectangle width="40" height="30" as="alternateBounds"/>
                    </mxGeometry>
                </mxCell>
                <mxCell id="Cv_LC8ZKEJ-u5_81ve8e-19" value="Producer_ID : int" style="shape=partialRectangle;connectable=0;fillColor=none;top=0;left=0;bottom=0;right=0;align=left;spacingLeft=6;fontStyle=5;overflow=hidden;" vertex="1" parent="Cv_LC8ZKEJ-u5_81ve8e-17">
                    <mxGeometry x="40" width="100" height="30" as="geometry">
                        <mxRectangle width="100" height="30" as="alternateBounds"/>
                    </mxGeometry>
                </mxCell>
                <mxCell id="Cv_LC8ZKEJ-u5_81ve8e-20" value="" style="shape=partialRectangle;collapsible=0;dropTarget=0;pointerEvents=0;fillColor=none;top=0;left=0;bottom=0;right=0;points=[[0,0.5],[1,0.5]];portConstraint=eastwest;" vertex="1" parent="Cv_LC8ZKEJ-u5_81ve8e-16">
                    <mxGeometry y="60" width="140" height="30" as="geometry"/>
                </mxCell>
                <mxCell id="Cv_LC8ZKEJ-u5_81ve8e-21" value="" style="shape=partialRectangle;connectable=0;fillColor=none;top=0;left=0;bottom=0;right=0;editable=1;overflow=hidden;" vertex="1" parent="Cv_LC8ZKEJ-u5_81ve8e-20">
                    <mxGeometry width="40" height="30" as="geometry">
                        <mxRectangle width="40" height="30" as="alternateBounds"/>
                    </mxGeometry>
                </mxCell>
                <mxCell id="Cv_LC8ZKEJ-u5_81ve8e-22" value="Name: string   " style="shape=partialRectangle;connectable=0;fillColor=none;top=0;left=0;bottom=0;right=0;align=left;spacingLeft=6;overflow=hidden;" vertex="1" parent="Cv_LC8ZKEJ-u5_81ve8e-20">
                    <mxGeometry x="40" width="100" height="30" as="geometry">
                        <mxRectangle width="100" height="30" as="alternateBounds"/>
                    </mxGeometry>
                </mxCell>
                <mxCell id="Cv_LC8ZKEJ-u5_81ve8e-23" value="" style="shape=partialRectangle;collapsible=0;dropTarget=0;pointerEvents=0;fillColor=none;top=0;left=0;bottom=0;right=0;points=[[0,0.5],[1,0.5]];portConstraint=eastwest;" vertex="1" parent="Cv_LC8ZKEJ-u5_81ve8e-16">
                    <mxGeometry y="90" width="140" height="30" as="geometry"/>
                </mxCell>
                <mxCell id="Cv_LC8ZKEJ-u5_81ve8e-24" value="" style="shape=partialRectangle;connectable=0;fillColor=none;top=0;left=0;bottom=0;right=0;editable=1;overflow=hidden;fontStyle=1" vertex="1" parent="Cv_LC8ZKEJ-u5_81ve8e-23">
                    <mxGeometry width="40" height="30" as="geometry">
                        <mxRectangle width="40" height="30" as="alternateBounds"/>
                    </mxGeometry>
                </mxCell>
                <mxCell id="Cv_LC8ZKEJ-u5_81ve8e-25" value="Country:string" style="shape=partialRectangle;connectable=0;fillColor=none;top=0;left=0;bottom=0;right=0;align=left;spacingLeft=6;overflow=hidden;fontStyle=1" vertex="1" parent="Cv_LC8ZKEJ-u5_81ve8e-23">
                    <mxGeometry x="40" width="100" height="30" as="geometry">
                        <mxRectangle width="100" height="30" as="alternateBounds"/>
                    </mxGeometry>
                </mxCell>
                <mxCell id="EmH3XdYSdaBfBkKi6B55-13" value="" style="edgeStyle=entityRelationEdgeStyle;fontSize=12;html=1;endArrow=ERoneToMany;startArrow=ERoneToMany;exitX=-0.044;exitY=0.441;exitDx=0;exitDy=0;exitPerimeter=0;" edge="1" parent="GezirhydbBwE05wu2tW2-1" source="Cv_LC8ZKEJ-u5_81ve8e-1">
                    <mxGeometry width="100" height="100" relative="1" as="geometry">
                        <mxPoint x="-530" y="370" as="sourcePoint"/>
                        <mxPoint x="-620" y="220" as="targetPoint"/>
                    </mxGeometry>
                </mxCell>
                <mxCell id="EmH3XdYSdaBfBkKi6B55-14" value="Order" style="shape=table;startSize=30;container=1;collapsible=1;childLayout=tableLayout;fixedRows=1;rowLines=0;fontStyle=1;align=center;resizeLast=1;" vertex="1" parent="GezirhydbBwE05wu2tW2-1">
                    <mxGeometry x="-440" y="390" width="160" height="120" as="geometry"/>
                </mxCell>
                <mxCell id="EmH3XdYSdaBfBkKi6B55-15" value="" style="shape=partialRectangle;collapsible=0;dropTarget=0;pointerEvents=0;fillColor=none;top=0;left=0;bottom=1;right=0;points=[[0,0.5],[1,0.5]];portConstraint=eastwest;" vertex="1" parent="EmH3XdYSdaBfBkKi6B55-14">
                    <mxGeometry y="30" width="160" height="30" as="geometry"/>
                </mxCell>
                <mxCell id="EmH3XdYSdaBfBkKi6B55-16" value="PK" style="shape=partialRectangle;connectable=0;fillColor=none;top=0;left=0;bottom=0;right=0;fontStyle=1;overflow=hidden;" vertex="1" parent="EmH3XdYSdaBfBkKi6B55-15">
                    <mxGeometry width="40" height="30" as="geometry">
                        <mxRectangle width="40" height="30" as="alternateBounds"/>
                    </mxGeometry>
                </mxCell>
                <mxCell id="EmH3XdYSdaBfBkKi6B55-17" value="Order_ID : int" style="shape=partialRectangle;connectable=0;fillColor=none;top=0;left=0;bottom=0;right=0;align=left;spacingLeft=6;fontStyle=5;overflow=hidden;" vertex="1" parent="EmH3XdYSdaBfBkKi6B55-15">
                    <mxGeometry x="40" width="120" height="30" as="geometry">
                        <mxRectangle width="120" height="30" as="alternateBounds"/>
                    </mxGeometry>
                </mxCell>
                <mxCell id="EmH3XdYSdaBfBkKi6B55-18" value="" style="shape=partialRectangle;collapsible=0;dropTarget=0;pointerEvents=0;fillColor=none;top=0;left=0;bottom=0;right=0;points=[[0,0.5],[1,0.5]];portConstraint=eastwest;" vertex="1" parent="EmH3XdYSdaBfBkKi6B55-14">
                    <mxGeometry y="60" width="160" height="30" as="geometry"/>
                </mxCell>
                <mxCell id="EmH3XdYSdaBfBkKi6B55-19" value="FK" style="shape=partialRectangle;connectable=0;fillColor=none;top=0;left=0;bottom=0;right=0;editable=1;overflow=hidden;" vertex="1" parent="EmH3XdYSdaBfBkKi6B55-18">
                    <mxGeometry width="40" height="30" as="geometry">
                        <mxRectangle width="40" height="30" as="alternateBounds"/>
                    </mxGeometry>
                </mxCell>
                <mxCell id="EmH3XdYSdaBfBkKi6B55-20" value="Production_list_ID : int" style="shape=partialRectangle;connectable=0;fillColor=none;top=0;left=0;bottom=0;right=0;align=left;spacingLeft=6;overflow=hidden;" vertex="1" parent="EmH3XdYSdaBfBkKi6B55-18">
                    <mxGeometry x="40" width="120" height="30" as="geometry">
                        <mxRectangle width="120" height="30" as="alternateBounds"/>
                    </mxGeometry>
                </mxCell>
                <mxCell id="EmH3XdYSdaBfBkKi6B55-21" value="" style="shape=partialRectangle;collapsible=0;dropTarget=0;pointerEvents=0;fillColor=none;top=0;left=0;bottom=0;right=0;points=[[0,0.5],[1,0.5]];portConstraint=eastwest;" vertex="1" parent="EmH3XdYSdaBfBkKi6B55-14">
                    <mxGeometry y="90" width="160" height="30" as="geometry"/>
                </mxCell>
                <mxCell id="EmH3XdYSdaBfBkKi6B55-22" value="" style="shape=partialRectangle;connectable=0;fillColor=none;top=0;left=0;bottom=0;right=0;editable=1;overflow=hidden;fontStyle=1" vertex="1" parent="EmH3XdYSdaBfBkKi6B55-21">
                    <mxGeometry width="40" height="30" as="geometry">
                        <mxRectangle width="40" height="30" as="alternateBounds"/>
                    </mxGeometry>
                </mxCell>
                <mxCell id="EmH3XdYSdaBfBkKi6B55-23" value="date:date" style="shape=partialRectangle;connectable=0;fillColor=none;top=0;left=0;bottom=0;right=0;align=left;spacingLeft=6;overflow=hidden;fontStyle=1" vertex="1" parent="EmH3XdYSdaBfBkKi6B55-21">
                    <mxGeometry x="40" width="120" height="30" as="geometry">
                        <mxRectangle width="120" height="30" as="alternateBounds"/>
                    </mxGeometry>
                </mxCell>
                <mxCell id="Dy_j7hJBB49atZhFfjHV-0" value="Invoice" style="shape=table;startSize=30;container=1;collapsible=1;childLayout=tableLayout;fixedRows=1;rowLines=0;fontStyle=1;align=center;resizeLast=1;" vertex="1" parent="GezirhydbBwE05wu2tW2-1">
                    <mxGeometry x="-310" y="260" width="150" height="120" as="geometry"/>
                </mxCell>
                <mxCell id="Dy_j7hJBB49atZhFfjHV-1" value="" style="shape=partialRectangle;collapsible=0;dropTarget=0;pointerEvents=0;fillColor=none;top=0;left=0;bottom=1;right=0;points=[[0,0.5],[1,0.5]];portConstraint=eastwest;" vertex="1" parent="Dy_j7hJBB49atZhFfjHV-0">
                    <mxGeometry y="30" width="150" height="30" as="geometry"/>
                </mxCell>
                <mxCell id="Dy_j7hJBB49atZhFfjHV-2" value="PK" style="shape=partialRectangle;connectable=0;fillColor=none;top=0;left=0;bottom=0;right=0;fontStyle=1;overflow=hidden;" vertex="1" parent="Dy_j7hJBB49atZhFfjHV-1">
                    <mxGeometry width="40" height="30" as="geometry">
                        <mxRectangle width="40" height="30" as="alternateBounds"/>
                    </mxGeometry>
                </mxCell>
                <mxCell id="Dy_j7hJBB49atZhFfjHV-3" value="Invoice_ID:int" style="shape=partialRectangle;connectable=0;fillColor=none;top=0;left=0;bottom=0;right=0;align=left;spacingLeft=6;fontStyle=5;overflow=hidden;" vertex="1" parent="Dy_j7hJBB49atZhFfjHV-1">
                    <mxGeometry x="40" width="110" height="30" as="geometry">
                        <mxRectangle width="110" height="30" as="alternateBounds"/>
                    </mxGeometry>
                </mxCell>
                <mxCell id="Dy_j7hJBB49atZhFfjHV-4" value="" style="shape=partialRectangle;collapsible=0;dropTarget=0;pointerEvents=0;fillColor=none;top=0;left=0;bottom=0;right=0;points=[[0,0.5],[1,0.5]];portConstraint=eastwest;" vertex="1" parent="Dy_j7hJBB49atZhFfjHV-0">
                    <mxGeometry y="60" width="150" height="30" as="geometry"/>
                </mxCell>
                <mxCell id="Dy_j7hJBB49atZhFfjHV-5" value="FK" style="shape=partialRectangle;connectable=0;fillColor=none;top=0;left=0;bottom=0;right=0;editable=1;overflow=hidden;" vertex="1" parent="Dy_j7hJBB49atZhFfjHV-4">
                    <mxGeometry width="40" height="30" as="geometry">
                        <mxRectangle width="40" height="30" as="alternateBounds"/>
                    </mxGeometry>
                </mxCell>
                <mxCell id="Dy_j7hJBB49atZhFfjHV-6" value="Order_ID : int" style="shape=partialRectangle;connectable=0;fillColor=none;top=0;left=0;bottom=0;right=0;align=left;spacingLeft=6;overflow=hidden;" vertex="1" parent="Dy_j7hJBB49atZhFfjHV-4">
                    <mxGeometry x="40" width="110" height="30" as="geometry">
                        <mxRectangle width="110" height="30" as="alternateBounds"/>
                    </mxGeometry>
                </mxCell>
                <mxCell id="Dy_j7hJBB49atZhFfjHV-7" value="" style="shape=partialRectangle;collapsible=0;dropTarget=0;pointerEvents=0;fillColor=none;top=0;left=0;bottom=0;right=0;points=[[0,0.5],[1,0.5]];portConstraint=eastwest;" vertex="1" parent="Dy_j7hJBB49atZhFfjHV-0">
                    <mxGeometry y="90" width="150" height="30" as="geometry"/>
                </mxCell>
                <mxCell id="Dy_j7hJBB49atZhFfjHV-8" value="FK" style="shape=partialRectangle;connectable=0;fillColor=none;top=0;left=0;bottom=0;right=0;editable=1;overflow=hidden;fontStyle=1" vertex="1" parent="Dy_j7hJBB49atZhFfjHV-7">
                    <mxGeometry width="40" height="30" as="geometry">
                        <mxRectangle width="40" height="30" as="alternateBounds"/>
                    </mxGeometry>
                </mxCell>
                <mxCell id="Dy_j7hJBB49atZhFfjHV-9" value="Account_ID : int" style="shape=partialRectangle;connectable=0;fillColor=none;top=0;left=0;bottom=0;right=0;align=left;spacingLeft=6;overflow=hidden;fontStyle=1" vertex="1" parent="Dy_j7hJBB49atZhFfjHV-7">
                    <mxGeometry x="40" width="110" height="30" as="geometry">
                        <mxRectangle width="110" height="30" as="alternateBounds"/>
                    </mxGeometry>
                </mxCell>
                <mxCell id="Dy_j7hJBB49atZhFfjHV-12" value="" style="edgeStyle=entityRelationEdgeStyle;fontSize=12;html=1;endArrow=ERmany;startArrow=ERmany;" edge="1" parent="GezirhydbBwE05wu2tW2-1">
                    <mxGeometry width="100" height="100" relative="1" as="geometry">
                        <mxPoint x="-560" y="465" as="sourcePoint"/>
                        <mxPoint x="-430" y="435" as="targetPoint"/>
                    </mxGeometry>
                </mxCell>
                <mxCell id="twgfF0c46nhamqOIQMsc-30" value="Customer" style="shape=table;startSize=30;container=1;collapsible=1;childLayout=tableLayout;fixedRows=1;rowLines=0;fontStyle=1;align=center;resizeLast=1;" vertex="1" parent="GezirhydbBwE05wu2tW2-1">
                    <mxGeometry x="-180" width="180" height="210" as="geometry"/>
                </mxCell>
                <mxCell id="twgfF0c46nhamqOIQMsc-31" value="" style="shape=partialRectangle;collapsible=0;dropTarget=0;pointerEvents=0;fillColor=none;top=0;left=0;bottom=1;right=0;points=[[0,0.5],[1,0.5]];portConstraint=eastwest;" vertex="1" parent="twgfF0c46nhamqOIQMsc-30">
                    <mxGeometry y="30" width="180" height="30" as="geometry"/>
                </mxCell>
                <mxCell id="twgfF0c46nhamqOIQMsc-32" value="PK" style="shape=partialRectangle;connectable=0;fillColor=none;top=0;left=0;bottom=0;right=0;fontStyle=1;overflow=hidden;" vertex="1" parent="twgfF0c46nhamqOIQMsc-31">
                    <mxGeometry width="30" height="30" as="geometry">
                        <mxRectangle width="30" height="30" as="alternateBounds"/>
                    </mxGeometry>
                </mxCell>
                <mxCell id="twgfF0c46nhamqOIQMsc-33" value="Customer_ID:int" style="shape=partialRectangle;connectable=0;fillColor=none;top=0;left=0;bottom=0;right=0;align=left;spacingLeft=6;fontStyle=5;overflow=hidden;" vertex="1" parent="twgfF0c46nhamqOIQMsc-31">
                    <mxGeometry x="30" width="150" height="30" as="geometry">
                        <mxRectangle width="150" height="30" as="alternateBounds"/>
                    </mxGeometry>
                </mxCell>
                <mxCell id="twgfF0c46nhamqOIQMsc-34" value="" style="shape=partialRectangle;collapsible=0;dropTarget=0;pointerEvents=0;fillColor=none;top=0;left=0;bottom=0;right=0;points=[[0,0.5],[1,0.5]];portConstraint=eastwest;" vertex="1" parent="twgfF0c46nhamqOIQMsc-30">
                    <mxGeometry y="60" width="180" height="30" as="geometry"/>
                </mxCell>
                <mxCell id="twgfF0c46nhamqOIQMsc-35" value="" style="shape=partialRectangle;connectable=0;fillColor=none;top=0;left=0;bottom=0;right=0;editable=1;overflow=hidden;" vertex="1" parent="twgfF0c46nhamqOIQMsc-34">
                    <mxGeometry width="30" height="30" as="geometry">
                        <mxRectangle width="30" height="30" as="alternateBounds"/>
                    </mxGeometry>
                </mxCell>
                <mxCell id="twgfF0c46nhamqOIQMsc-36" value="Name: string   " style="shape=partialRectangle;connectable=0;fillColor=none;top=0;left=0;bottom=0;right=0;align=left;spacingLeft=6;overflow=hidden;" vertex="1" parent="twgfF0c46nhamqOIQMsc-34">
                    <mxGeometry x="30" width="150" height="30" as="geometry">
                        <mxRectangle width="150" height="30" as="alternateBounds"/>
                    </mxGeometry>
                </mxCell>
                <mxCell id="twgfF0c46nhamqOIQMsc-37" value="" style="shape=partialRectangle;collapsible=0;dropTarget=0;pointerEvents=0;fillColor=none;top=0;left=0;bottom=0;right=0;points=[[0,0.5],[1,0.5]];portConstraint=eastwest;" vertex="1" parent="twgfF0c46nhamqOIQMsc-30">
                    <mxGeometry y="90" width="180" height="30" as="geometry"/>
                </mxCell>
                <mxCell id="twgfF0c46nhamqOIQMsc-38" value="" style="shape=partialRectangle;connectable=0;fillColor=none;top=0;left=0;bottom=0;right=0;editable=1;overflow=hidden;" vertex="1" parent="twgfF0c46nhamqOIQMsc-37">
                    <mxGeometry width="30" height="30" as="geometry">
                        <mxRectangle width="30" height="30" as="alternateBounds"/>
                    </mxGeometry>
                </mxCell>
                <mxCell id="twgfF0c46nhamqOIQMsc-39" value="Email: string" style="shape=partialRectangle;connectable=0;fillColor=none;top=0;left=0;bottom=0;right=0;align=left;spacingLeft=6;overflow=hidden;" vertex="1" parent="twgfF0c46nhamqOIQMsc-37">
                    <mxGeometry x="30" width="150" height="30" as="geometry">
                        <mxRectangle width="150" height="30" as="alternateBounds"/>
                    </mxGeometry>
                </mxCell>
                <mxCell id="twgfF0c46nhamqOIQMsc-40" value="" style="shape=partialRectangle;collapsible=0;dropTarget=0;pointerEvents=0;fillColor=none;top=0;left=0;bottom=0;right=0;points=[[0,0.5],[1,0.5]];portConstraint=eastwest;" vertex="1" parent="twgfF0c46nhamqOIQMsc-30">
                    <mxGeometry y="120" width="180" height="30" as="geometry"/>
                </mxCell>
                <mxCell id="twgfF0c46nhamqOIQMsc-41" value="" style="shape=partialRectangle;connectable=0;fillColor=none;top=0;left=0;bottom=0;right=0;editable=1;overflow=hidden;fontStyle=1" vertex="1" parent="twgfF0c46nhamqOIQMsc-40">
                    <mxGeometry width="30" height="30" as="geometry">
                        <mxRectangle width="30" height="30" as="alternateBounds"/>
                    </mxGeometry>
                </mxCell>
                <mxCell id="twgfF0c46nhamqOIQMsc-42" value="Adress:string" style="shape=partialRectangle;connectable=0;fillColor=none;top=0;left=0;bottom=0;right=0;align=left;spacingLeft=6;overflow=hidden;fontStyle=1" vertex="1" parent="twgfF0c46nhamqOIQMsc-40">
                    <mxGeometry x="30" width="150" height="30" as="geometry">
                        <mxRectangle width="150" height="30" as="alternateBounds"/>
                    </mxGeometry>
                </mxCell>
                <mxCell id="twgfF0c46nhamqOIQMsc-43" value="" style="shape=partialRectangle;collapsible=0;dropTarget=0;pointerEvents=0;fillColor=none;top=0;left=0;bottom=0;right=0;points=[[0,0.5],[1,0.5]];portConstraint=eastwest;" vertex="1" parent="twgfF0c46nhamqOIQMsc-30">
                    <mxGeometry y="150" width="180" height="30" as="geometry"/>
                </mxCell>
                <mxCell id="twgfF0c46nhamqOIQMsc-44" value="" style="shape=partialRectangle;connectable=0;fillColor=none;top=0;left=0;bottom=0;right=0;editable=1;overflow=hidden;fontStyle=1" vertex="1" parent="twgfF0c46nhamqOIQMsc-43">
                    <mxGeometry width="30" height="30" as="geometry">
                        <mxRectangle width="30" height="30" as="alternateBounds"/>
                    </mxGeometry>
                </mxCell>
                <mxCell id="twgfF0c46nhamqOIQMsc-45" value="User_name:string" style="shape=partialRectangle;connectable=0;fillColor=none;top=0;left=0;bottom=0;right=0;align=left;spacingLeft=6;overflow=hidden;fontStyle=1" vertex="1" parent="twgfF0c46nhamqOIQMsc-43">
                    <mxGeometry x="30" width="150" height="30" as="geometry">
                        <mxRectangle width="150" height="30" as="alternateBounds"/>
                    </mxGeometry>
                </mxCell>
                <mxCell id="twgfF0c46nhamqOIQMsc-46" value="" style="shape=partialRectangle;collapsible=0;dropTarget=0;pointerEvents=0;fillColor=none;top=0;left=0;bottom=0;right=0;points=[[0,0.5],[1,0.5]];portConstraint=eastwest;" vertex="1" parent="twgfF0c46nhamqOIQMsc-30">
                    <mxGeometry y="180" width="180" height="30" as="geometry"/>
                </mxCell>
                <mxCell id="twgfF0c46nhamqOIQMsc-47" value="" style="shape=partialRectangle;connectable=0;fillColor=none;top=0;left=0;bottom=0;right=0;editable=1;overflow=hidden;fontStyle=1" vertex="1" parent="twgfF0c46nhamqOIQMsc-46">
                    <mxGeometry width="30" height="30" as="geometry">
                        <mxRectangle width="30" height="30" as="alternateBounds"/>
                    </mxGeometry>
                </mxCell>
                <mxCell id="twgfF0c46nhamqOIQMsc-48" value="Countr:string" style="shape=partialRectangle;connectable=0;fillColor=none;top=0;left=0;bottom=0;right=0;align=left;spacingLeft=6;overflow=hidden;fontStyle=1" vertex="1" parent="twgfF0c46nhamqOIQMsc-46">
                    <mxGeometry x="30" width="150" height="30" as="geometry">
                        <mxRectangle width="150" height="30" as="alternateBounds"/>
                    </mxGeometry>
                </mxCell>
                <mxCell id="Z3cT8pJJK3k2sZ90JyKX-0" value="Account" style="shape=table;startSize=30;container=1;collapsible=1;childLayout=tableLayout;fixedRows=1;rowLines=0;fontStyle=1;align=center;resizeLast=1;" vertex="1" parent="GezirhydbBwE05wu2tW2-1">
                    <mxGeometry x="-390" y="140" width="150" height="90" as="geometry"/>
                </mxCell>
                <mxCell id="Z3cT8pJJK3k2sZ90JyKX-1" value="" style="shape=partialRectangle;collapsible=0;dropTarget=0;pointerEvents=0;fillColor=none;top=0;left=0;bottom=1;right=0;points=[[0,0.5],[1,0.5]];portConstraint=eastwest;" vertex="1" parent="Z3cT8pJJK3k2sZ90JyKX-0">
                    <mxGeometry y="30" width="150" height="30" as="geometry"/>
                </mxCell>
                <mxCell id="Z3cT8pJJK3k2sZ90JyKX-2" value="PK" style="shape=partialRectangle;connectable=0;fillColor=none;top=0;left=0;bottom=0;right=0;fontStyle=1;overflow=hidden;" vertex="1" parent="Z3cT8pJJK3k2sZ90JyKX-1">
                    <mxGeometry width="40" height="30" as="geometry">
                        <mxRectangle width="40" height="30" as="alternateBounds"/>
                    </mxGeometry>
                </mxCell>
                <mxCell id="Z3cT8pJJK3k2sZ90JyKX-3" value="Account_ID:int" style="shape=partialRectangle;connectable=0;fillColor=none;top=0;left=0;bottom=0;right=0;align=left;spacingLeft=6;fontStyle=5;overflow=hidden;" vertex="1" parent="Z3cT8pJJK3k2sZ90JyKX-1">
                    <mxGeometry x="40" width="110" height="30" as="geometry">
                        <mxRectangle width="110" height="30" as="alternateBounds"/>
                    </mxGeometry>
                </mxCell>
                <mxCell id="Z3cT8pJJK3k2sZ90JyKX-4" value="" style="shape=partialRectangle;collapsible=0;dropTarget=0;pointerEvents=0;fillColor=none;top=0;left=0;bottom=0;right=0;points=[[0,0.5],[1,0.5]];portConstraint=eastwest;" vertex="1" parent="Z3cT8pJJK3k2sZ90JyKX-0">
                    <mxGeometry y="60" width="150" height="30" as="geometry"/>
                </mxCell>
                <mxCell id="Z3cT8pJJK3k2sZ90JyKX-5" value="FK" style="shape=partialRectangle;connectable=0;fillColor=none;top=0;left=0;bottom=0;right=0;editable=1;overflow=hidden;" vertex="1" parent="Z3cT8pJJK3k2sZ90JyKX-4">
                    <mxGeometry width="40" height="30" as="geometry">
                        <mxRectangle width="40" height="30" as="alternateBounds"/>
                    </mxGeometry>
                </mxCell>
                <mxCell id="Z3cT8pJJK3k2sZ90JyKX-6" value="Customer_ID:int" style="shape=partialRectangle;connectable=0;fillColor=none;top=0;left=0;bottom=0;right=0;align=left;spacingLeft=6;overflow=hidden;" vertex="1" parent="Z3cT8pJJK3k2sZ90JyKX-4">
                    <mxGeometry x="40" width="110" height="30" as="geometry">
                        <mxRectangle width="110" height="30" as="alternateBounds"/>
                    </mxGeometry>
                </mxCell>
                <mxCell id="Z3cT8pJJK3k2sZ90JyKX-10" value="" style="edgeStyle=entityRelationEdgeStyle;fontSize=12;html=1;endArrow=ERmandOne;entryX=-0.022;entryY=0.177;entryDx=0;entryDy=0;entryPerimeter=0;exitX=1.009;exitY=0.195;exitDx=0;exitDy=0;exitPerimeter=0;" edge="1" parent="GezirhydbBwE05wu2tW2-1" source="Z3cT8pJJK3k2sZ90JyKX-4" target="twgfF0c46nhamqOIQMsc-37">
                    <mxGeometry width="100" height="100" relative="1" as="geometry">
                        <mxPoint x="-240" y="340" as="sourcePoint"/>
                        <mxPoint x="-140" y="240" as="targetPoint"/>
                    </mxGeometry>
                </mxCell>
                <mxCell id="Z3cT8pJJK3k2sZ90JyKX-11" value="" style="edgeStyle=entityRelationEdgeStyle;fontSize=12;html=1;endArrow=ERzeroToOne;startArrow=ERmandOne;entryX=0.756;entryY=1.072;entryDx=0;entryDy=0;entryPerimeter=0;exitX=0.75;exitY=0;exitDx=0;exitDy=0;" edge="1" parent="GezirhydbBwE05wu2tW2-1" source="Dy_j7hJBB49atZhFfjHV-0" target="Z3cT8pJJK3k2sZ90JyKX-4">
                    <mxGeometry width="100" height="100" relative="1" as="geometry">
                        <mxPoint x="-240" y="340" as="sourcePoint"/>
                        <mxPoint x="-140" y="240" as="targetPoint"/>
                    </mxGeometry>
                </mxCell>
                <mxCell id="OsYYtY0BU27LxEmPepCT-0" value="Shipment" style="shape=table;startSize=30;container=1;collapsible=1;childLayout=tableLayout;fixedRows=1;rowLines=0;fontStyle=1;align=center;resizeLast=1;" vertex="1" parent="GezirhydbBwE05wu2tW2-1">
                    <mxGeometry x="-165" y="410" width="150" height="90" as="geometry">
                        <mxRectangle x="-165" y="410" width="90" height="30" as="alternateBounds"/>
                    </mxGeometry>
                </mxCell>
                <mxCell id="OsYYtY0BU27LxEmPepCT-1" value="" style="shape=partialRectangle;collapsible=0;dropTarget=0;pointerEvents=0;fillColor=none;top=0;left=0;bottom=1;right=0;points=[[0,0.5],[1,0.5]];portConstraint=eastwest;" vertex="1" parent="OsYYtY0BU27LxEmPepCT-0">
                    <mxGeometry y="30" width="150" height="30" as="geometry"/>
                </mxCell>
                <mxCell id="OsYYtY0BU27LxEmPepCT-2" value="PK" style="shape=partialRectangle;connectable=0;fillColor=none;top=0;left=0;bottom=0;right=0;fontStyle=1;overflow=hidden;" vertex="1" parent="OsYYtY0BU27LxEmPepCT-1">
                    <mxGeometry width="40" height="30" as="geometry">
                        <mxRectangle width="40" height="30" as="alternateBounds"/>
                    </mxGeometry>
                </mxCell>
                <mxCell id="OsYYtY0BU27LxEmPepCT-3" value="Shipment_ID:int" style="shape=partialRectangle;connectable=0;fillColor=none;top=0;left=0;bottom=0;right=0;align=left;spacingLeft=6;fontStyle=5;overflow=hidden;" vertex="1" parent="OsYYtY0BU27LxEmPepCT-1">
                    <mxGeometry x="40" width="110" height="30" as="geometry">
                        <mxRectangle width="110" height="30" as="alternateBounds"/>
                    </mxGeometry>
                </mxCell>
                <mxCell id="OsYYtY0BU27LxEmPepCT-4" value="" style="shape=partialRectangle;collapsible=0;dropTarget=0;pointerEvents=0;fillColor=none;top=0;left=0;bottom=0;right=0;points=[[0,0.5],[1,0.5]];portConstraint=eastwest;" vertex="1" parent="OsYYtY0BU27LxEmPepCT-0">
                    <mxGeometry y="60" width="150" height="30" as="geometry"/>
                </mxCell>
                <mxCell id="OsYYtY0BU27LxEmPepCT-5" value="FK" style="shape=partialRectangle;connectable=0;fillColor=none;top=0;left=0;bottom=0;right=0;editable=1;overflow=hidden;" vertex="1" parent="OsYYtY0BU27LxEmPepCT-4">
                    <mxGeometry width="40" height="30" as="geometry">
                        <mxRectangle width="40" height="30" as="alternateBounds"/>
                    </mxGeometry>
                </mxCell>
                <mxCell id="OsYYtY0BU27LxEmPepCT-6" value="Invoice_ID:int" style="shape=partialRectangle;connectable=0;fillColor=none;top=0;left=0;bottom=0;right=0;align=left;spacingLeft=6;overflow=hidden;" vertex="1" parent="OsYYtY0BU27LxEmPepCT-4">
                    <mxGeometry x="40" width="110" height="30" as="geometry">
                        <mxRectangle width="110" height="30" as="alternateBounds"/>
                    </mxGeometry>
                </mxCell>
                <mxCell id="OsYYtY0BU27LxEmPepCT-10" value="Transport" style="shape=table;startSize=30;container=1;collapsible=1;childLayout=tableLayout;fixedRows=1;rowLines=0;fontStyle=1;align=center;resizeLast=1;" vertex="1" parent="GezirhydbBwE05wu2tW2-1">
                    <mxGeometry x="-190" y="550" width="150" height="90" as="geometry">
                        <mxRectangle x="-190" y="550" width="90" height="30" as="alternateBounds"/>
                    </mxGeometry>
                </mxCell>
                <mxCell id="OsYYtY0BU27LxEmPepCT-11" value="" style="shape=partialRectangle;collapsible=0;dropTarget=0;pointerEvents=0;fillColor=none;top=0;left=0;bottom=1;right=0;points=[[0,0.5],[1,0.5]];portConstraint=eastwest;" vertex="1" parent="OsYYtY0BU27LxEmPepCT-10">
                    <mxGeometry y="30" width="150" height="30" as="geometry"/>
                </mxCell>
                <mxCell id="OsYYtY0BU27LxEmPepCT-12" value="PK" style="shape=partialRectangle;connectable=0;fillColor=none;top=0;left=0;bottom=0;right=0;fontStyle=1;overflow=hidden;" vertex="1" parent="OsYYtY0BU27LxEmPepCT-11">
                    <mxGeometry width="40" height="30" as="geometry">
                        <mxRectangle width="40" height="30" as="alternateBounds"/>
                    </mxGeometry>
                </mxCell>
                <mxCell id="OsYYtY0BU27LxEmPepCT-13" value="Transport_ID:int" style="shape=partialRectangle;connectable=0;fillColor=none;top=0;left=0;bottom=0;right=0;align=left;spacingLeft=6;fontStyle=5;overflow=hidden;" vertex="1" parent="OsYYtY0BU27LxEmPepCT-11">
                    <mxGeometry x="40" width="110" height="30" as="geometry">
                        <mxRectangle width="110" height="30" as="alternateBounds"/>
                    </mxGeometry>
                </mxCell>
                <mxCell id="OsYYtY0BU27LxEmPepCT-14" value="" style="shape=partialRectangle;collapsible=0;dropTarget=0;pointerEvents=0;fillColor=none;top=0;left=0;bottom=0;right=0;points=[[0,0.5],[1,0.5]];portConstraint=eastwest;" vertex="1" parent="OsYYtY0BU27LxEmPepCT-10">
                    <mxGeometry y="60" width="150" height="30" as="geometry"/>
                </mxCell>
                <mxCell id="OsYYtY0BU27LxEmPepCT-15" value="FK" style="shape=partialRectangle;connectable=0;fillColor=none;top=0;left=0;bottom=0;right=0;editable=1;overflow=hidden;" vertex="1" parent="OsYYtY0BU27LxEmPepCT-14">
                    <mxGeometry width="40" height="30" as="geometry">
                        <mxRectangle width="40" height="30" as="alternateBounds"/>
                    </mxGeometry>
                </mxCell>
                <mxCell id="OsYYtY0BU27LxEmPepCT-16" value="Shipment_ID:int" style="shape=partialRectangle;connectable=0;fillColor=none;top=0;left=0;bottom=0;right=0;align=left;spacingLeft=6;overflow=hidden;" vertex="1" parent="OsYYtY0BU27LxEmPepCT-14">
                    <mxGeometry x="40" width="110" height="30" as="geometry">
                        <mxRectangle width="110" height="30" as="alternateBounds"/>
                    </mxGeometry>
                </mxCell>
                <mxCell id="OsYYtY0BU27LxEmPepCT-17" value="" style="shape=partialRectangle;collapsible=0;dropTarget=0;pointerEvents=0;fillColor=none;top=0;left=0;bottom=0;right=0;points=[[0,0.5],[1,0.5]];portConstraint=eastwest;" vertex="1" parent="GezirhydbBwE05wu2tW2-1">
                    <mxGeometry x="-190" y="640" width="150" height="30" as="geometry"/>
                </mxCell>
                <mxCell id="OsYYtY0BU27LxEmPepCT-18" value="" style="shape=partialRectangle;connectable=0;fillColor=none;top=0;left=0;bottom=0;right=0;editable=1;overflow=hidden;fontStyle=1" vertex="1" parent="OsYYtY0BU27LxEmPepCT-17">
                    <mxGeometry width="40" height="30" as="geometry">
                        <mxRectangle width="40" height="30" as="alternateBounds"/>
                    </mxGeometry>
                </mxCell>
                <mxCell id="OsYYtY0BU27LxEmPepCT-19" value="date:date" style="shape=partialRectangle;connectable=0;fillColor=none;top=0;left=0;bottom=0;right=0;align=left;spacingLeft=6;overflow=hidden;fontStyle=1" vertex="1" parent="OsYYtY0BU27LxEmPepCT-17">
                    <mxGeometry x="40" width="110" height="30" as="geometry">
                        <mxRectangle width="110" height="30" as="alternateBounds"/>
                    </mxGeometry>
                </mxCell>
                <mxCell id="OsYYtY0BU27LxEmPepCT-20" value="Warehouse" style="shape=table;startSize=30;container=1;collapsible=1;childLayout=tableLayout;fixedRows=1;rowLines=0;fontStyle=1;align=center;resizeLast=1;" vertex="1" parent="GezirhydbBwE05wu2tW2-1">
                    <mxGeometry x="-700" y="610" width="150" height="90" as="geometry">
                        <mxRectangle x="-190" y="550" width="90" height="30" as="alternateBounds"/>
                    </mxGeometry>
                </mxCell>
                <mxCell id="OsYYtY0BU27LxEmPepCT-21" value="" style="shape=partialRectangle;collapsible=0;dropTarget=0;pointerEvents=0;fillColor=none;top=0;left=0;bottom=1;right=0;points=[[0,0.5],[1,0.5]];portConstraint=eastwest;" vertex="1" parent="OsYYtY0BU27LxEmPepCT-20">
                    <mxGeometry y="30" width="150" height="30" as="geometry"/>
                </mxCell>
                <mxCell id="OsYYtY0BU27LxEmPepCT-22" value="PK" style="shape=partialRectangle;connectable=0;fillColor=none;top=0;left=0;bottom=0;right=0;fontStyle=1;overflow=hidden;" vertex="1" parent="OsYYtY0BU27LxEmPepCT-21">
                    <mxGeometry width="40" height="30" as="geometry">
                        <mxRectangle width="40" height="30" as="alternateBounds"/>
                    </mxGeometry>
                </mxCell>
                <mxCell id="OsYYtY0BU27LxEmPepCT-23" value="Warehouse_id" style="shape=partialRectangle;connectable=0;fillColor=none;top=0;left=0;bottom=0;right=0;align=left;spacingLeft=6;fontStyle=5;overflow=hidden;" vertex="1" parent="OsYYtY0BU27LxEmPepCT-21">
                    <mxGeometry x="40" width="110" height="30" as="geometry">
                        <mxRectangle width="110" height="30" as="alternateBounds"/>
                    </mxGeometry>
                </mxCell>
                <mxCell id="OsYYtY0BU27LxEmPepCT-24" value="" style="shape=partialRectangle;collapsible=0;dropTarget=0;pointerEvents=0;fillColor=none;top=0;left=0;bottom=0;right=0;points=[[0,0.5],[1,0.5]];portConstraint=eastwest;" vertex="1" parent="OsYYtY0BU27LxEmPepCT-20">
                    <mxGeometry y="60" width="150" height="30" as="geometry"/>
                </mxCell>
                <mxCell id="OsYYtY0BU27LxEmPepCT-25" value="FK" style="shape=partialRectangle;connectable=0;fillColor=none;top=0;left=0;bottom=0;right=0;editable=1;overflow=hidden;" vertex="1" parent="OsYYtY0BU27LxEmPepCT-24">
                    <mxGeometry width="40" height="30" as="geometry">
                        <mxRectangle width="40" height="30" as="alternateBounds"/>
                    </mxGeometry>
                </mxCell>
                <mxCell id="OsYYtY0BU27LxEmPepCT-26" value="Product_ID : int" style="shape=partialRectangle;connectable=0;fillColor=none;top=0;left=0;bottom=0;right=0;align=left;spacingLeft=6;overflow=hidden;" vertex="1" parent="OsYYtY0BU27LxEmPepCT-24">
                    <mxGeometry x="40" width="110" height="30" as="geometry">
                        <mxRectangle width="110" height="30" as="alternateBounds"/>
                    </mxGeometry>
                </mxCell>
                <mxCell id="OsYYtY0BU27LxEmPepCT-27" value="&lt;span style=&quot;color: rgb(240 , 240 , 240) ; font-family: &amp;#34;helvetica&amp;#34; ; font-size: 12px ; font-style: normal ; font-weight: 700 ; letter-spacing: normal ; text-align: left ; text-indent: 0px ; text-transform: none ; word-spacing: 0px ; background-color: rgb(42 , 42 , 42) ; display: inline ; float: none&quot;&gt;country:string&lt;/span&gt;" style="text;whiteSpace=wrap;html=1;" vertex="1" parent="GezirhydbBwE05wu2tW2-1">
                    <mxGeometry x="-665" y="700" width="80" height="30" as="geometry"/>
                </mxCell>
                <mxCell id="OsYYtY0BU27LxEmPepCT-28" value="" style="edgeStyle=entityRelationEdgeStyle;fontSize=12;html=1;endArrow=ERmandOne;startArrow=ERmandOne;entryX=1;entryY=0.5;entryDx=0;entryDy=0;exitX=0.299;exitY=0.005;exitDx=0;exitDy=0;exitPerimeter=0;" edge="1" parent="GezirhydbBwE05wu2tW2-1" source="OsYYtY0BU27LxEmPepCT-0" target="Dy_j7hJBB49atZhFfjHV-1">
                    <mxGeometry width="100" height="100" relative="1" as="geometry">
                        <mxPoint x="-280" y="410" as="sourcePoint"/>
                        <mxPoint x="-180" y="310" as="targetPoint"/>
                    </mxGeometry>
                </mxCell>
                <mxCell id="OsYYtY0BU27LxEmPepCT-29" value="" style="edgeStyle=entityRelationEdgeStyle;fontSize=12;html=1;endArrow=ERmandOne;startArrow=ERmandOne;entryX=1;entryY=0.5;entryDx=0;entryDy=0;exitX=0.299;exitY=0.005;exitDx=0;exitDy=0;exitPerimeter=0;" edge="1" parent="GezirhydbBwE05wu2tW2-1">
                    <mxGeometry width="100" height="100" relative="1" as="geometry">
                        <mxPoint x="-269.9999999999999" y="435.45000000000005" as="sourcePoint"/>
                        <mxPoint x="-309.8499999999998" y="330" as="targetPoint"/>
                    </mxGeometry>
                </mxCell>
                <mxCell id="OsYYtY0BU27LxEmPepCT-30" value="" style="edgeStyle=entityRelationEdgeStyle;fontSize=12;html=1;endArrow=ERmandOne;startArrow=ERmandOne;exitX=0.25;exitY=0;exitDx=0;exitDy=0;" edge="1" parent="GezirhydbBwE05wu2tW2-1" source="OsYYtY0BU27LxEmPepCT-10">
                    <mxGeometry width="100" height="100" relative="1" as="geometry">
                        <mxPoint x="-260" y="590" as="sourcePoint"/>
                        <mxPoint x="-160" y="490" as="targetPoint"/>
                    </mxGeometry>
                </mxCell>
                <mxCell id="OsYYtY0BU27LxEmPepCT-31" value="" style="edgeStyle=entityRelationEdgeStyle;fontSize=12;html=1;endArrow=ERmandOne;startArrow=ERmandOne;exitX=0.984;exitY=0.015;exitDx=0;exitDy=0;exitPerimeter=0;entryX=1;entryY=0.5;entryDx=0;entryDy=0;" edge="1" parent="GezirhydbBwE05wu2tW2-1" source="OsYYtY0BU27LxEmPepCT-21" target="Cv_LC8ZKEJ-u5_81ve8e-13">
                    <mxGeometry width="100" height="100" relative="1" as="geometry">
                        <mxPoint x="-380" y="590" as="sourcePoint"/>
                        <mxPoint x="-650" y="590" as="targetPoint"/>
                    </mxGeometry>
                </mxCell>
            </root>
        </mxGraphModel>
    </diagram>
    <diagram id="tJoiz9HhHv4PbdcDrebp" name="Step-4 Norm">
        <mxGraphModel dx="1698" dy="1851" grid="1" gridSize="10" guides="1" tooltips="1" connect="1" arrows="1" fold="1" page="1" pageScale="1" pageWidth="827" pageHeight="1169" math="0" shadow="0">
            <root>
                <mxCell id="-pJ-adx-EopEpAzPijO_-0"/>
                <mxCell id="-pJ-adx-EopEpAzPijO_-1" parent="-pJ-adx-EopEpAzPijO_-0"/>
                <mxCell id="4ok2Pce4mK_eoCCH2V8g-0" value="Product" style="shape=table;startSize=30;container=1;collapsible=1;childLayout=tableLayout;fixedRows=1;rowLines=0;fontStyle=1;align=center;resizeLast=1;" vertex="1" parent="-pJ-adx-EopEpAzPijO_-1">
                    <mxGeometry x="-700" y="420" width="140" height="150" as="geometry"/>
                </mxCell>
                <mxCell id="4ok2Pce4mK_eoCCH2V8g-1" value="" style="shape=partialRectangle;collapsible=0;dropTarget=0;pointerEvents=0;fillColor=none;top=0;left=0;bottom=1;right=0;points=[[0,0.5],[1,0.5]];portConstraint=eastwest;" vertex="1" parent="4ok2Pce4mK_eoCCH2V8g-0">
                    <mxGeometry y="30" width="140" height="30" as="geometry"/>
                </mxCell>
                <mxCell id="4ok2Pce4mK_eoCCH2V8g-2" value="PK" style="shape=partialRectangle;connectable=0;fillColor=none;top=0;left=0;bottom=0;right=0;fontStyle=1;overflow=hidden;" vertex="1" parent="4ok2Pce4mK_eoCCH2V8g-1">
                    <mxGeometry width="40" height="30" as="geometry">
                        <mxRectangle width="40" height="30" as="alternateBounds"/>
                    </mxGeometry>
                </mxCell>
                <mxCell id="4ok2Pce4mK_eoCCH2V8g-3" value="Product_ID : int" style="shape=partialRectangle;connectable=0;fillColor=none;top=0;left=0;bottom=0;right=0;align=left;spacingLeft=6;fontStyle=5;overflow=hidden;" vertex="1" parent="4ok2Pce4mK_eoCCH2V8g-1">
                    <mxGeometry x="40" width="100" height="30" as="geometry">
                        <mxRectangle width="100" height="30" as="alternateBounds"/>
                    </mxGeometry>
                </mxCell>
                <mxCell id="4ok2Pce4mK_eoCCH2V8g-4" value="" style="shape=partialRectangle;collapsible=0;dropTarget=0;pointerEvents=0;fillColor=none;top=0;left=0;bottom=0;right=0;points=[[0,0.5],[1,0.5]];portConstraint=eastwest;" vertex="1" parent="4ok2Pce4mK_eoCCH2V8g-0">
                    <mxGeometry y="60" width="140" height="30" as="geometry"/>
                </mxCell>
                <mxCell id="4ok2Pce4mK_eoCCH2V8g-5" value="" style="shape=partialRectangle;connectable=0;fillColor=none;top=0;left=0;bottom=0;right=0;editable=1;overflow=hidden;" vertex="1" parent="4ok2Pce4mK_eoCCH2V8g-4">
                    <mxGeometry width="40" height="30" as="geometry">
                        <mxRectangle width="40" height="30" as="alternateBounds"/>
                    </mxGeometry>
                </mxCell>
                <mxCell id="4ok2Pce4mK_eoCCH2V8g-6" value="Name: string   " style="shape=partialRectangle;connectable=0;fillColor=none;top=0;left=0;bottom=0;right=0;align=left;spacingLeft=6;overflow=hidden;" vertex="1" parent="4ok2Pce4mK_eoCCH2V8g-4">
                    <mxGeometry x="40" width="100" height="30" as="geometry">
                        <mxRectangle width="100" height="30" as="alternateBounds"/>
                    </mxGeometry>
                </mxCell>
                <mxCell id="4ok2Pce4mK_eoCCH2V8g-7" value="" style="shape=partialRectangle;collapsible=0;dropTarget=0;pointerEvents=0;fillColor=none;top=0;left=0;bottom=0;right=0;points=[[0,0.5],[1,0.5]];portConstraint=eastwest;" vertex="1" parent="4ok2Pce4mK_eoCCH2V8g-0">
                    <mxGeometry y="90" width="140" height="30" as="geometry"/>
                </mxCell>
                <mxCell id="4ok2Pce4mK_eoCCH2V8g-8" value="FK" style="shape=partialRectangle;connectable=0;fillColor=none;top=0;left=0;bottom=0;right=0;editable=1;overflow=hidden;fontStyle=1" vertex="1" parent="4ok2Pce4mK_eoCCH2V8g-7">
                    <mxGeometry width="40" height="30" as="geometry">
                        <mxRectangle width="40" height="30" as="alternateBounds"/>
                    </mxGeometry>
                </mxCell>
                <mxCell id="4ok2Pce4mK_eoCCH2V8g-9" value="Producer_ID:int" style="shape=partialRectangle;connectable=0;fillColor=none;top=0;left=0;bottom=0;right=0;align=left;spacingLeft=6;overflow=hidden;fontStyle=1" vertex="1" parent="4ok2Pce4mK_eoCCH2V8g-7">
                    <mxGeometry x="40" width="100" height="30" as="geometry">
                        <mxRectangle width="100" height="30" as="alternateBounds"/>
                    </mxGeometry>
                </mxCell>
                <mxCell id="4ok2Pce4mK_eoCCH2V8g-10" value="" style="shape=partialRectangle;collapsible=0;dropTarget=0;pointerEvents=0;fillColor=none;top=0;left=0;bottom=0;right=0;points=[[0,0.5],[1,0.5]];portConstraint=eastwest;" vertex="1" parent="4ok2Pce4mK_eoCCH2V8g-0">
                    <mxGeometry y="120" width="140" height="30" as="geometry"/>
                </mxCell>
                <mxCell id="4ok2Pce4mK_eoCCH2V8g-11" value="FK" style="shape=partialRectangle;connectable=0;fillColor=none;top=0;left=0;bottom=0;right=0;editable=1;overflow=hidden;fontStyle=1" vertex="1" parent="4ok2Pce4mK_eoCCH2V8g-10">
                    <mxGeometry width="40" height="30" as="geometry">
                        <mxRectangle width="40" height="30" as="alternateBounds"/>
                    </mxGeometry>
                </mxCell>
                <mxCell id="4ok2Pce4mK_eoCCH2V8g-12" value="Warehouse_ID:int" style="shape=partialRectangle;connectable=0;fillColor=none;top=0;left=0;bottom=0;right=0;align=left;spacingLeft=6;overflow=hidden;fontStyle=1" vertex="1" parent="4ok2Pce4mK_eoCCH2V8g-10">
                    <mxGeometry x="40" width="100" height="30" as="geometry">
                        <mxRectangle width="100" height="30" as="alternateBounds"/>
                    </mxGeometry>
                </mxCell>
                <mxCell id="4ok2Pce4mK_eoCCH2V8g-13" value="Producer" style="shape=table;startSize=30;container=1;collapsible=1;childLayout=tableLayout;fixedRows=1;rowLines=0;fontStyle=1;align=center;resizeLast=1;" vertex="1" parent="-pJ-adx-EopEpAzPijO_-1">
                    <mxGeometry x="-680" y="100" width="140" height="120" as="geometry"/>
                </mxCell>
                <mxCell id="4ok2Pce4mK_eoCCH2V8g-14" value="" style="shape=partialRectangle;collapsible=0;dropTarget=0;pointerEvents=0;fillColor=none;top=0;left=0;bottom=1;right=0;points=[[0,0.5],[1,0.5]];portConstraint=eastwest;" vertex="1" parent="4ok2Pce4mK_eoCCH2V8g-13">
                    <mxGeometry y="30" width="140" height="30" as="geometry"/>
                </mxCell>
                <mxCell id="4ok2Pce4mK_eoCCH2V8g-15" value="PK" style="shape=partialRectangle;connectable=0;fillColor=none;top=0;left=0;bottom=0;right=0;fontStyle=1;overflow=hidden;" vertex="1" parent="4ok2Pce4mK_eoCCH2V8g-14">
                    <mxGeometry width="40" height="30" as="geometry">
                        <mxRectangle width="40" height="30" as="alternateBounds"/>
                    </mxGeometry>
                </mxCell>
                <mxCell id="4ok2Pce4mK_eoCCH2V8g-16" value="Producer_ID : int" style="shape=partialRectangle;connectable=0;fillColor=none;top=0;left=0;bottom=0;right=0;align=left;spacingLeft=6;fontStyle=5;overflow=hidden;" vertex="1" parent="4ok2Pce4mK_eoCCH2V8g-14">
                    <mxGeometry x="40" width="100" height="30" as="geometry">
                        <mxRectangle width="100" height="30" as="alternateBounds"/>
                    </mxGeometry>
                </mxCell>
                <mxCell id="4ok2Pce4mK_eoCCH2V8g-17" value="" style="shape=partialRectangle;collapsible=0;dropTarget=0;pointerEvents=0;fillColor=none;top=0;left=0;bottom=0;right=0;points=[[0,0.5],[1,0.5]];portConstraint=eastwest;" vertex="1" parent="4ok2Pce4mK_eoCCH2V8g-13">
                    <mxGeometry y="60" width="140" height="30" as="geometry"/>
                </mxCell>
                <mxCell id="4ok2Pce4mK_eoCCH2V8g-18" value="" style="shape=partialRectangle;connectable=0;fillColor=none;top=0;left=0;bottom=0;right=0;editable=1;overflow=hidden;" vertex="1" parent="4ok2Pce4mK_eoCCH2V8g-17">
                    <mxGeometry width="40" height="30" as="geometry">
                        <mxRectangle width="40" height="30" as="alternateBounds"/>
                    </mxGeometry>
                </mxCell>
                <mxCell id="4ok2Pce4mK_eoCCH2V8g-19" value="Name: string   " style="shape=partialRectangle;connectable=0;fillColor=none;top=0;left=0;bottom=0;right=0;align=left;spacingLeft=6;overflow=hidden;" vertex="1" parent="4ok2Pce4mK_eoCCH2V8g-17">
                    <mxGeometry x="40" width="100" height="30" as="geometry">
                        <mxRectangle width="100" height="30" as="alternateBounds"/>
                    </mxGeometry>
                </mxCell>
                <mxCell id="4ok2Pce4mK_eoCCH2V8g-20" value="" style="shape=partialRectangle;collapsible=0;dropTarget=0;pointerEvents=0;fillColor=none;top=0;left=0;bottom=0;right=0;points=[[0,0.5],[1,0.5]];portConstraint=eastwest;" vertex="1" parent="4ok2Pce4mK_eoCCH2V8g-13">
                    <mxGeometry y="90" width="140" height="30" as="geometry"/>
                </mxCell>
                <mxCell id="4ok2Pce4mK_eoCCH2V8g-21" value="FK" style="shape=partialRectangle;connectable=0;fillColor=none;top=0;left=0;bottom=0;right=0;editable=1;overflow=hidden;fontStyle=1" vertex="1" parent="4ok2Pce4mK_eoCCH2V8g-20">
                    <mxGeometry width="40" height="30" as="geometry">
                        <mxRectangle width="40" height="30" as="alternateBounds"/>
                    </mxGeometry>
                </mxCell>
                <mxCell id="4ok2Pce4mK_eoCCH2V8g-22" value="Zip_ID" style="shape=partialRectangle;connectable=0;fillColor=none;top=0;left=0;bottom=0;right=0;align=left;spacingLeft=6;overflow=hidden;fontStyle=1" vertex="1" parent="4ok2Pce4mK_eoCCH2V8g-20">
                    <mxGeometry x="40" width="100" height="30" as="geometry">
                        <mxRectangle width="100" height="30" as="alternateBounds"/>
                    </mxGeometry>
                </mxCell>
                <mxCell id="4ok2Pce4mK_eoCCH2V8g-23" value="Production_list" style="shape=table;startSize=30;container=1;collapsible=1;childLayout=tableLayout;fixedRows=1;rowLines=0;fontStyle=1;align=center;resizeLast=1;" vertex="1" parent="-pJ-adx-EopEpAzPijO_-1">
                    <mxGeometry x="-700" y="270" width="180" height="120" as="geometry"/>
                </mxCell>
                <mxCell id="4ok2Pce4mK_eoCCH2V8g-24" value="" style="shape=partialRectangle;collapsible=0;dropTarget=0;pointerEvents=0;fillColor=none;top=0;left=0;bottom=1;right=0;points=[[0,0.5],[1,0.5]];portConstraint=eastwest;" vertex="1" parent="4ok2Pce4mK_eoCCH2V8g-23">
                    <mxGeometry y="30" width="180" height="30" as="geometry"/>
                </mxCell>
                <mxCell id="4ok2Pce4mK_eoCCH2V8g-25" value="PK" style="shape=partialRectangle;connectable=0;fillColor=none;top=0;left=0;bottom=0;right=0;fontStyle=1;overflow=hidden;" vertex="1" parent="4ok2Pce4mK_eoCCH2V8g-24">
                    <mxGeometry width="40" height="30" as="geometry">
                        <mxRectangle width="40" height="30" as="alternateBounds"/>
                    </mxGeometry>
                </mxCell>
                <mxCell id="4ok2Pce4mK_eoCCH2V8g-26" value="Production_ID : int" style="shape=partialRectangle;connectable=0;fillColor=none;top=0;left=0;bottom=0;right=0;align=left;spacingLeft=6;fontStyle=5;overflow=hidden;" vertex="1" parent="4ok2Pce4mK_eoCCH2V8g-24">
                    <mxGeometry x="40" width="140" height="30" as="geometry">
                        <mxRectangle width="140" height="30" as="alternateBounds"/>
                    </mxGeometry>
                </mxCell>
                <mxCell id="4ok2Pce4mK_eoCCH2V8g-27" value="" style="shape=partialRectangle;collapsible=0;dropTarget=0;pointerEvents=0;fillColor=none;top=0;left=0;bottom=0;right=0;points=[[0,0.5],[1,0.5]];portConstraint=eastwest;" vertex="1" parent="4ok2Pce4mK_eoCCH2V8g-23">
                    <mxGeometry y="60" width="180" height="30" as="geometry"/>
                </mxCell>
                <mxCell id="4ok2Pce4mK_eoCCH2V8g-28" value="FK" style="shape=partialRectangle;connectable=0;fillColor=none;top=0;left=0;bottom=0;right=0;editable=1;overflow=hidden;fontStyle=1" vertex="1" parent="4ok2Pce4mK_eoCCH2V8g-27">
                    <mxGeometry width="40" height="30" as="geometry">
                        <mxRectangle width="40" height="30" as="alternateBounds"/>
                    </mxGeometry>
                </mxCell>
                <mxCell id="4ok2Pce4mK_eoCCH2V8g-29" value="Producer_ID : int" style="shape=partialRectangle;connectable=0;fillColor=none;top=0;left=0;bottom=0;right=0;align=left;spacingLeft=6;overflow=hidden;fontStyle=1" vertex="1" parent="4ok2Pce4mK_eoCCH2V8g-27">
                    <mxGeometry x="40" width="140" height="30" as="geometry">
                        <mxRectangle width="140" height="30" as="alternateBounds"/>
                    </mxGeometry>
                </mxCell>
                <mxCell id="4ok2Pce4mK_eoCCH2V8g-30" value="" style="shape=partialRectangle;collapsible=0;dropTarget=0;pointerEvents=0;fillColor=none;top=0;left=0;bottom=0;right=0;points=[[0,0.5],[1,0.5]];portConstraint=eastwest;" vertex="1" parent="4ok2Pce4mK_eoCCH2V8g-23">
                    <mxGeometry y="90" width="180" height="30" as="geometry"/>
                </mxCell>
                <mxCell id="4ok2Pce4mK_eoCCH2V8g-31" value="FK" style="shape=partialRectangle;connectable=0;fillColor=none;top=0;left=0;bottom=0;right=0;editable=1;overflow=hidden;fontStyle=1" vertex="1" parent="4ok2Pce4mK_eoCCH2V8g-30">
                    <mxGeometry width="40" height="30" as="geometry">
                        <mxRectangle width="40" height="30" as="alternateBounds"/>
                    </mxGeometry>
                </mxCell>
                <mxCell id="4ok2Pce4mK_eoCCH2V8g-32" value="Product_ID : int" style="shape=partialRectangle;connectable=0;fillColor=none;top=0;left=0;bottom=0;right=0;align=left;spacingLeft=6;overflow=hidden;fontStyle=1" vertex="1" parent="4ok2Pce4mK_eoCCH2V8g-30">
                    <mxGeometry x="40" width="140" height="30" as="geometry">
                        <mxRectangle width="140" height="30" as="alternateBounds"/>
                    </mxGeometry>
                </mxCell>
                <mxCell id="4ok2Pce4mK_eoCCH2V8g-33" value="" style="edgeStyle=entityRelationEdgeStyle;fontSize=12;html=1;endArrow=ERoneToMany;startArrow=ERoneToMany;exitX=-0.044;exitY=0.441;exitDx=0;exitDy=0;exitPerimeter=0;" edge="1" parent="-pJ-adx-EopEpAzPijO_-1" source="4ok2Pce4mK_eoCCH2V8g-1">
                    <mxGeometry width="100" height="100" relative="1" as="geometry">
                        <mxPoint x="-530" y="370" as="sourcePoint"/>
                        <mxPoint x="-620" y="220" as="targetPoint"/>
                    </mxGeometry>
                </mxCell>
                <mxCell id="4ok2Pce4mK_eoCCH2V8g-34" value="Order" style="shape=table;startSize=30;container=1;collapsible=1;childLayout=tableLayout;fixedRows=1;rowLines=0;fontStyle=1;align=center;resizeLast=1;" vertex="1" parent="-pJ-adx-EopEpAzPijO_-1">
                    <mxGeometry x="-440" y="390" width="160" height="120" as="geometry"/>
                </mxCell>
                <mxCell id="4ok2Pce4mK_eoCCH2V8g-35" value="" style="shape=partialRectangle;collapsible=0;dropTarget=0;pointerEvents=0;fillColor=none;top=0;left=0;bottom=1;right=0;points=[[0,0.5],[1,0.5]];portConstraint=eastwest;" vertex="1" parent="4ok2Pce4mK_eoCCH2V8g-34">
                    <mxGeometry y="30" width="160" height="30" as="geometry"/>
                </mxCell>
                <mxCell id="4ok2Pce4mK_eoCCH2V8g-36" value="PK" style="shape=partialRectangle;connectable=0;fillColor=none;top=0;left=0;bottom=0;right=0;fontStyle=1;overflow=hidden;" vertex="1" parent="4ok2Pce4mK_eoCCH2V8g-35">
                    <mxGeometry width="40" height="30" as="geometry">
                        <mxRectangle width="40" height="30" as="alternateBounds"/>
                    </mxGeometry>
                </mxCell>
                <mxCell id="4ok2Pce4mK_eoCCH2V8g-37" value="Order_ID : int" style="shape=partialRectangle;connectable=0;fillColor=none;top=0;left=0;bottom=0;right=0;align=left;spacingLeft=6;fontStyle=5;overflow=hidden;" vertex="1" parent="4ok2Pce4mK_eoCCH2V8g-35">
                    <mxGeometry x="40" width="120" height="30" as="geometry">
                        <mxRectangle width="120" height="30" as="alternateBounds"/>
                    </mxGeometry>
                </mxCell>
                <mxCell id="4ok2Pce4mK_eoCCH2V8g-38" value="" style="shape=partialRectangle;collapsible=0;dropTarget=0;pointerEvents=0;fillColor=none;top=0;left=0;bottom=0;right=0;points=[[0,0.5],[1,0.5]];portConstraint=eastwest;" vertex="1" parent="4ok2Pce4mK_eoCCH2V8g-34">
                    <mxGeometry y="60" width="160" height="30" as="geometry"/>
                </mxCell>
                <mxCell id="4ok2Pce4mK_eoCCH2V8g-39" value="FK" style="shape=partialRectangle;connectable=0;fillColor=none;top=0;left=0;bottom=0;right=0;editable=1;overflow=hidden;" vertex="1" parent="4ok2Pce4mK_eoCCH2V8g-38">
                    <mxGeometry width="40" height="30" as="geometry">
                        <mxRectangle width="40" height="30" as="alternateBounds"/>
                    </mxGeometry>
                </mxCell>
                <mxCell id="4ok2Pce4mK_eoCCH2V8g-40" value="Production_list_ID : int" style="shape=partialRectangle;connectable=0;fillColor=none;top=0;left=0;bottom=0;right=0;align=left;spacingLeft=6;overflow=hidden;" vertex="1" parent="4ok2Pce4mK_eoCCH2V8g-38">
                    <mxGeometry x="40" width="120" height="30" as="geometry">
                        <mxRectangle width="120" height="30" as="alternateBounds"/>
                    </mxGeometry>
                </mxCell>
                <mxCell id="4ok2Pce4mK_eoCCH2V8g-41" value="" style="shape=partialRectangle;collapsible=0;dropTarget=0;pointerEvents=0;fillColor=none;top=0;left=0;bottom=0;right=0;points=[[0,0.5],[1,0.5]];portConstraint=eastwest;" vertex="1" parent="4ok2Pce4mK_eoCCH2V8g-34">
                    <mxGeometry y="90" width="160" height="30" as="geometry"/>
                </mxCell>
                <mxCell id="4ok2Pce4mK_eoCCH2V8g-42" value="" style="shape=partialRectangle;connectable=0;fillColor=none;top=0;left=0;bottom=0;right=0;editable=1;overflow=hidden;fontStyle=1" vertex="1" parent="4ok2Pce4mK_eoCCH2V8g-41">
                    <mxGeometry width="40" height="30" as="geometry">
                        <mxRectangle width="40" height="30" as="alternateBounds"/>
                    </mxGeometry>
                </mxCell>
                <mxCell id="4ok2Pce4mK_eoCCH2V8g-43" value="date:date" style="shape=partialRectangle;connectable=0;fillColor=none;top=0;left=0;bottom=0;right=0;align=left;spacingLeft=6;overflow=hidden;fontStyle=1" vertex="1" parent="4ok2Pce4mK_eoCCH2V8g-41">
                    <mxGeometry x="40" width="120" height="30" as="geometry">
                        <mxRectangle width="120" height="30" as="alternateBounds"/>
                    </mxGeometry>
                </mxCell>
                <mxCell id="4ok2Pce4mK_eoCCH2V8g-44" value="Invoice" style="shape=table;startSize=30;container=1;collapsible=1;childLayout=tableLayout;fixedRows=1;rowLines=0;fontStyle=1;align=center;resizeLast=1;" vertex="1" parent="-pJ-adx-EopEpAzPijO_-1">
                    <mxGeometry x="-310" y="260" width="150" height="120" as="geometry"/>
                </mxCell>
                <mxCell id="4ok2Pce4mK_eoCCH2V8g-45" value="" style="shape=partialRectangle;collapsible=0;dropTarget=0;pointerEvents=0;fillColor=none;top=0;left=0;bottom=1;right=0;points=[[0,0.5],[1,0.5]];portConstraint=eastwest;" vertex="1" parent="4ok2Pce4mK_eoCCH2V8g-44">
                    <mxGeometry y="30" width="150" height="30" as="geometry"/>
                </mxCell>
                <mxCell id="4ok2Pce4mK_eoCCH2V8g-46" value="PK" style="shape=partialRectangle;connectable=0;fillColor=none;top=0;left=0;bottom=0;right=0;fontStyle=1;overflow=hidden;" vertex="1" parent="4ok2Pce4mK_eoCCH2V8g-45">
                    <mxGeometry width="40" height="30" as="geometry">
                        <mxRectangle width="40" height="30" as="alternateBounds"/>
                    </mxGeometry>
                </mxCell>
                <mxCell id="4ok2Pce4mK_eoCCH2V8g-47" value="Invoice_ID:int" style="shape=partialRectangle;connectable=0;fillColor=none;top=0;left=0;bottom=0;right=0;align=left;spacingLeft=6;fontStyle=5;overflow=hidden;" vertex="1" parent="4ok2Pce4mK_eoCCH2V8g-45">
                    <mxGeometry x="40" width="110" height="30" as="geometry">
                        <mxRectangle width="110" height="30" as="alternateBounds"/>
                    </mxGeometry>
                </mxCell>
                <mxCell id="4ok2Pce4mK_eoCCH2V8g-48" value="" style="shape=partialRectangle;collapsible=0;dropTarget=0;pointerEvents=0;fillColor=none;top=0;left=0;bottom=0;right=0;points=[[0,0.5],[1,0.5]];portConstraint=eastwest;" vertex="1" parent="4ok2Pce4mK_eoCCH2V8g-44">
                    <mxGeometry y="60" width="150" height="30" as="geometry"/>
                </mxCell>
                <mxCell id="4ok2Pce4mK_eoCCH2V8g-49" value="FK" style="shape=partialRectangle;connectable=0;fillColor=none;top=0;left=0;bottom=0;right=0;editable=1;overflow=hidden;" vertex="1" parent="4ok2Pce4mK_eoCCH2V8g-48">
                    <mxGeometry width="40" height="30" as="geometry">
                        <mxRectangle width="40" height="30" as="alternateBounds"/>
                    </mxGeometry>
                </mxCell>
                <mxCell id="4ok2Pce4mK_eoCCH2V8g-50" value="Order_ID : int" style="shape=partialRectangle;connectable=0;fillColor=none;top=0;left=0;bottom=0;right=0;align=left;spacingLeft=6;overflow=hidden;" vertex="1" parent="4ok2Pce4mK_eoCCH2V8g-48">
                    <mxGeometry x="40" width="110" height="30" as="geometry">
                        <mxRectangle width="110" height="30" as="alternateBounds"/>
                    </mxGeometry>
                </mxCell>
                <mxCell id="4ok2Pce4mK_eoCCH2V8g-51" value="" style="shape=partialRectangle;collapsible=0;dropTarget=0;pointerEvents=0;fillColor=none;top=0;left=0;bottom=0;right=0;points=[[0,0.5],[1,0.5]];portConstraint=eastwest;" vertex="1" parent="4ok2Pce4mK_eoCCH2V8g-44">
                    <mxGeometry y="90" width="150" height="30" as="geometry"/>
                </mxCell>
                <mxCell id="4ok2Pce4mK_eoCCH2V8g-52" value="FK" style="shape=partialRectangle;connectable=0;fillColor=none;top=0;left=0;bottom=0;right=0;editable=1;overflow=hidden;fontStyle=1" vertex="1" parent="4ok2Pce4mK_eoCCH2V8g-51">
                    <mxGeometry width="40" height="30" as="geometry">
                        <mxRectangle width="40" height="30" as="alternateBounds"/>
                    </mxGeometry>
                </mxCell>
                <mxCell id="4ok2Pce4mK_eoCCH2V8g-53" value="Account_ID : int" style="shape=partialRectangle;connectable=0;fillColor=none;top=0;left=0;bottom=0;right=0;align=left;spacingLeft=6;overflow=hidden;fontStyle=1" vertex="1" parent="4ok2Pce4mK_eoCCH2V8g-51">
                    <mxGeometry x="40" width="110" height="30" as="geometry">
                        <mxRectangle width="110" height="30" as="alternateBounds"/>
                    </mxGeometry>
                </mxCell>
                <mxCell id="4ok2Pce4mK_eoCCH2V8g-56" value="" style="shape=partialRectangle;connectable=0;fillColor=none;top=0;left=0;bottom=0;right=0;editable=1;overflow=hidden;" vertex="1" parent="-pJ-adx-EopEpAzPijO_-1">
                    <mxGeometry x="-180" y="60" width="30" height="30" as="geometry">
                        <mxRectangle width="30" height="30" as="alternateBounds"/>
                    </mxGeometry>
                </mxCell>
                <mxCell id="4ok2Pce4mK_eoCCH2V8g-57" value="" style="shape=partialRectangle;connectable=0;fillColor=none;top=0;left=0;bottom=0;right=0;editable=1;overflow=hidden;" vertex="1" parent="-pJ-adx-EopEpAzPijO_-1">
                    <mxGeometry x="-180" y="90" width="30" height="30" as="geometry">
                        <mxRectangle width="30" height="30" as="alternateBounds"/>
                    </mxGeometry>
                </mxCell>
                <mxCell id="4ok2Pce4mK_eoCCH2V8g-58" value="" style="shape=partialRectangle;connectable=0;fillColor=none;top=0;left=0;bottom=0;right=0;editable=1;overflow=hidden;fontStyle=1" vertex="1" parent="-pJ-adx-EopEpAzPijO_-1">
                    <mxGeometry x="-180" y="120" width="30" height="30" as="geometry">
                        <mxRectangle width="30" height="30" as="alternateBounds"/>
                    </mxGeometry>
                </mxCell>
                <mxCell id="4ok2Pce4mK_eoCCH2V8g-59" value="" style="shape=partialRectangle;connectable=0;fillColor=none;top=0;left=0;bottom=0;right=0;editable=1;overflow=hidden;fontStyle=1" vertex="1" parent="-pJ-adx-EopEpAzPijO_-1">
                    <mxGeometry x="-180" y="150" width="30" height="30" as="geometry">
                        <mxRectangle width="30" height="30" as="alternateBounds"/>
                    </mxGeometry>
                </mxCell>
                <mxCell id="4ok2Pce4mK_eoCCH2V8g-60" value="" style="shape=partialRectangle;connectable=0;fillColor=none;top=0;left=0;bottom=0;right=0;editable=1;overflow=hidden;fontStyle=1" vertex="1" parent="-pJ-adx-EopEpAzPijO_-1">
                    <mxGeometry x="-180" y="180" width="30" height="30" as="geometry">
                        <mxRectangle width="30" height="30" as="alternateBounds"/>
                    </mxGeometry>
                </mxCell>
                <mxCell id="4ok2Pce4mK_eoCCH2V8g-61" value="Account" style="shape=table;startSize=30;container=1;collapsible=1;childLayout=tableLayout;fixedRows=1;rowLines=0;fontStyle=1;align=center;resizeLast=1;" vertex="1" parent="-pJ-adx-EopEpAzPijO_-1">
                    <mxGeometry x="-390" y="140" width="150" height="90" as="geometry"/>
                </mxCell>
                <mxCell id="4ok2Pce4mK_eoCCH2V8g-62" value="" style="shape=partialRectangle;collapsible=0;dropTarget=0;pointerEvents=0;fillColor=none;top=0;left=0;bottom=1;right=0;points=[[0,0.5],[1,0.5]];portConstraint=eastwest;" vertex="1" parent="4ok2Pce4mK_eoCCH2V8g-61">
                    <mxGeometry y="30" width="150" height="30" as="geometry"/>
                </mxCell>
                <mxCell id="4ok2Pce4mK_eoCCH2V8g-63" value="PK" style="shape=partialRectangle;connectable=0;fillColor=none;top=0;left=0;bottom=0;right=0;fontStyle=1;overflow=hidden;" vertex="1" parent="4ok2Pce4mK_eoCCH2V8g-62">
                    <mxGeometry width="40" height="30" as="geometry">
                        <mxRectangle width="40" height="30" as="alternateBounds"/>
                    </mxGeometry>
                </mxCell>
                <mxCell id="4ok2Pce4mK_eoCCH2V8g-64" value="Account_ID:int" style="shape=partialRectangle;connectable=0;fillColor=none;top=0;left=0;bottom=0;right=0;align=left;spacingLeft=6;fontStyle=5;overflow=hidden;" vertex="1" parent="4ok2Pce4mK_eoCCH2V8g-62">
                    <mxGeometry x="40" width="110" height="30" as="geometry">
                        <mxRectangle width="110" height="30" as="alternateBounds"/>
                    </mxGeometry>
                </mxCell>
                <mxCell id="4ok2Pce4mK_eoCCH2V8g-65" value="" style="shape=partialRectangle;collapsible=0;dropTarget=0;pointerEvents=0;fillColor=none;top=0;left=0;bottom=0;right=0;points=[[0,0.5],[1,0.5]];portConstraint=eastwest;" vertex="1" parent="4ok2Pce4mK_eoCCH2V8g-61">
                    <mxGeometry y="60" width="150" height="30" as="geometry"/>
                </mxCell>
                <mxCell id="4ok2Pce4mK_eoCCH2V8g-66" value="FK" style="shape=partialRectangle;connectable=0;fillColor=none;top=0;left=0;bottom=0;right=0;editable=1;overflow=hidden;" vertex="1" parent="4ok2Pce4mK_eoCCH2V8g-65">
                    <mxGeometry width="40" height="30" as="geometry">
                        <mxRectangle width="40" height="30" as="alternateBounds"/>
                    </mxGeometry>
                </mxCell>
                <mxCell id="4ok2Pce4mK_eoCCH2V8g-67" value="Customer_ID:int" style="shape=partialRectangle;connectable=0;fillColor=none;top=0;left=0;bottom=0;right=0;align=left;spacingLeft=6;overflow=hidden;" vertex="1" parent="4ok2Pce4mK_eoCCH2V8g-65">
                    <mxGeometry x="40" width="110" height="30" as="geometry">
                        <mxRectangle width="110" height="30" as="alternateBounds"/>
                    </mxGeometry>
                </mxCell>
                <mxCell id="4ok2Pce4mK_eoCCH2V8g-68" value="" style="edgeStyle=entityRelationEdgeStyle;fontSize=12;html=1;endArrow=ERmandOne;entryX=-0.022;entryY=0.177;entryDx=0;entryDy=0;entryPerimeter=0;exitX=1.009;exitY=0.195;exitDx=0;exitDy=0;exitPerimeter=0;" edge="1" parent="-pJ-adx-EopEpAzPijO_-1" source="4ok2Pce4mK_eoCCH2V8g-65">
                    <mxGeometry width="100" height="100" relative="1" as="geometry">
                        <mxPoint x="-240" y="340" as="sourcePoint"/>
                        <mxPoint x="-183.96000000000004" y="95.30999999999995" as="targetPoint"/>
                    </mxGeometry>
                </mxCell>
                <mxCell id="4ok2Pce4mK_eoCCH2V8g-69" value="" style="edgeStyle=entityRelationEdgeStyle;fontSize=12;html=1;endArrow=ERzeroToOne;startArrow=ERmandOne;entryX=0.756;entryY=1.072;entryDx=0;entryDy=0;entryPerimeter=0;exitX=0.75;exitY=0;exitDx=0;exitDy=0;" edge="1" parent="-pJ-adx-EopEpAzPijO_-1" source="4ok2Pce4mK_eoCCH2V8g-44" target="4ok2Pce4mK_eoCCH2V8g-65">
                    <mxGeometry width="100" height="100" relative="1" as="geometry">
                        <mxPoint x="-240" y="340" as="sourcePoint"/>
                        <mxPoint x="-140" y="240" as="targetPoint"/>
                    </mxGeometry>
                </mxCell>
                <mxCell id="4ok2Pce4mK_eoCCH2V8g-70" value="Shipment" style="shape=table;startSize=30;container=1;collapsible=1;childLayout=tableLayout;fixedRows=1;rowLines=0;fontStyle=1;align=center;resizeLast=1;" vertex="1" parent="-pJ-adx-EopEpAzPijO_-1">
                    <mxGeometry x="-165" y="410" width="150" height="90" as="geometry">
                        <mxRectangle x="-165" y="410" width="90" height="30" as="alternateBounds"/>
                    </mxGeometry>
                </mxCell>
                <mxCell id="4ok2Pce4mK_eoCCH2V8g-71" value="" style="shape=partialRectangle;collapsible=0;dropTarget=0;pointerEvents=0;fillColor=none;top=0;left=0;bottom=1;right=0;points=[[0,0.5],[1,0.5]];portConstraint=eastwest;" vertex="1" parent="4ok2Pce4mK_eoCCH2V8g-70">
                    <mxGeometry y="30" width="150" height="30" as="geometry"/>
                </mxCell>
                <mxCell id="4ok2Pce4mK_eoCCH2V8g-72" value="PK" style="shape=partialRectangle;connectable=0;fillColor=none;top=0;left=0;bottom=0;right=0;fontStyle=1;overflow=hidden;" vertex="1" parent="4ok2Pce4mK_eoCCH2V8g-71">
                    <mxGeometry width="40" height="30" as="geometry">
                        <mxRectangle width="40" height="30" as="alternateBounds"/>
                    </mxGeometry>
                </mxCell>
                <mxCell id="4ok2Pce4mK_eoCCH2V8g-73" value="Shipment_ID:int" style="shape=partialRectangle;connectable=0;fillColor=none;top=0;left=0;bottom=0;right=0;align=left;spacingLeft=6;fontStyle=5;overflow=hidden;" vertex="1" parent="4ok2Pce4mK_eoCCH2V8g-71">
                    <mxGeometry x="40" width="110" height="30" as="geometry">
                        <mxRectangle width="110" height="30" as="alternateBounds"/>
                    </mxGeometry>
                </mxCell>
                <mxCell id="4ok2Pce4mK_eoCCH2V8g-74" value="" style="shape=partialRectangle;collapsible=0;dropTarget=0;pointerEvents=0;fillColor=none;top=0;left=0;bottom=0;right=0;points=[[0,0.5],[1,0.5]];portConstraint=eastwest;" vertex="1" parent="4ok2Pce4mK_eoCCH2V8g-70">
                    <mxGeometry y="60" width="150" height="30" as="geometry"/>
                </mxCell>
                <mxCell id="4ok2Pce4mK_eoCCH2V8g-75" value="FK" style="shape=partialRectangle;connectable=0;fillColor=none;top=0;left=0;bottom=0;right=0;editable=1;overflow=hidden;" vertex="1" parent="4ok2Pce4mK_eoCCH2V8g-74">
                    <mxGeometry width="40" height="30" as="geometry">
                        <mxRectangle width="40" height="30" as="alternateBounds"/>
                    </mxGeometry>
                </mxCell>
                <mxCell id="4ok2Pce4mK_eoCCH2V8g-76" value="Invoice_ID:int" style="shape=partialRectangle;connectable=0;fillColor=none;top=0;left=0;bottom=0;right=0;align=left;spacingLeft=6;overflow=hidden;" vertex="1" parent="4ok2Pce4mK_eoCCH2V8g-74">
                    <mxGeometry x="40" width="110" height="30" as="geometry">
                        <mxRectangle width="110" height="30" as="alternateBounds"/>
                    </mxGeometry>
                </mxCell>
                <mxCell id="4ok2Pce4mK_eoCCH2V8g-77" value="Transport" style="shape=table;startSize=30;container=1;collapsible=1;childLayout=tableLayout;fixedRows=1;rowLines=0;fontStyle=1;align=center;resizeLast=1;" vertex="1" parent="-pJ-adx-EopEpAzPijO_-1">
                    <mxGeometry x="-190" y="550" width="150" height="90" as="geometry">
                        <mxRectangle x="-190" y="550" width="90" height="30" as="alternateBounds"/>
                    </mxGeometry>
                </mxCell>
                <mxCell id="4ok2Pce4mK_eoCCH2V8g-78" value="" style="shape=partialRectangle;collapsible=0;dropTarget=0;pointerEvents=0;fillColor=none;top=0;left=0;bottom=1;right=0;points=[[0,0.5],[1,0.5]];portConstraint=eastwest;" vertex="1" parent="4ok2Pce4mK_eoCCH2V8g-77">
                    <mxGeometry y="30" width="150" height="30" as="geometry"/>
                </mxCell>
                <mxCell id="4ok2Pce4mK_eoCCH2V8g-79" value="PK" style="shape=partialRectangle;connectable=0;fillColor=none;top=0;left=0;bottom=0;right=0;fontStyle=1;overflow=hidden;" vertex="1" parent="4ok2Pce4mK_eoCCH2V8g-78">
                    <mxGeometry width="40" height="30" as="geometry">
                        <mxRectangle width="40" height="30" as="alternateBounds"/>
                    </mxGeometry>
                </mxCell>
                <mxCell id="4ok2Pce4mK_eoCCH2V8g-80" value="Transport_ID:int" style="shape=partialRectangle;connectable=0;fillColor=none;top=0;left=0;bottom=0;right=0;align=left;spacingLeft=6;fontStyle=5;overflow=hidden;" vertex="1" parent="4ok2Pce4mK_eoCCH2V8g-78">
                    <mxGeometry x="40" width="110" height="30" as="geometry">
                        <mxRectangle width="110" height="30" as="alternateBounds"/>
                    </mxGeometry>
                </mxCell>
                <mxCell id="4ok2Pce4mK_eoCCH2V8g-81" value="" style="shape=partialRectangle;collapsible=0;dropTarget=0;pointerEvents=0;fillColor=none;top=0;left=0;bottom=0;right=0;points=[[0,0.5],[1,0.5]];portConstraint=eastwest;" vertex="1" parent="4ok2Pce4mK_eoCCH2V8g-77">
                    <mxGeometry y="60" width="150" height="30" as="geometry"/>
                </mxCell>
                <mxCell id="4ok2Pce4mK_eoCCH2V8g-82" value="FK" style="shape=partialRectangle;connectable=0;fillColor=none;top=0;left=0;bottom=0;right=0;editable=1;overflow=hidden;" vertex="1" parent="4ok2Pce4mK_eoCCH2V8g-81">
                    <mxGeometry width="40" height="30" as="geometry">
                        <mxRectangle width="40" height="30" as="alternateBounds"/>
                    </mxGeometry>
                </mxCell>
                <mxCell id="4ok2Pce4mK_eoCCH2V8g-83" value="Shipment_ID:int" style="shape=partialRectangle;connectable=0;fillColor=none;top=0;left=0;bottom=0;right=0;align=left;spacingLeft=6;overflow=hidden;" vertex="1" parent="4ok2Pce4mK_eoCCH2V8g-81">
                    <mxGeometry x="40" width="110" height="30" as="geometry">
                        <mxRectangle width="110" height="30" as="alternateBounds"/>
                    </mxGeometry>
                </mxCell>
                <mxCell id="4ok2Pce4mK_eoCCH2V8g-84" value="" style="shape=partialRectangle;collapsible=0;dropTarget=0;pointerEvents=0;fillColor=none;top=0;left=0;bottom=0;right=0;points=[[0,0.5],[1,0.5]];portConstraint=eastwest;" vertex="1" parent="-pJ-adx-EopEpAzPijO_-1">
                    <mxGeometry x="-190" y="640" width="150" height="30" as="geometry"/>
                </mxCell>
                <mxCell id="4ok2Pce4mK_eoCCH2V8g-85" value="" style="shape=partialRectangle;connectable=0;fillColor=none;top=0;left=0;bottom=0;right=0;editable=1;overflow=hidden;fontStyle=1" vertex="1" parent="4ok2Pce4mK_eoCCH2V8g-84">
                    <mxGeometry width="40" height="30" as="geometry">
                        <mxRectangle width="40" height="30" as="alternateBounds"/>
                    </mxGeometry>
                </mxCell>
                <mxCell id="4ok2Pce4mK_eoCCH2V8g-86" value="date:date" style="shape=partialRectangle;connectable=0;fillColor=none;top=0;left=0;bottom=0;right=0;align=left;spacingLeft=6;overflow=hidden;fontStyle=1" vertex="1" parent="4ok2Pce4mK_eoCCH2V8g-84">
                    <mxGeometry x="40" width="110" height="30" as="geometry">
                        <mxRectangle width="110" height="30" as="alternateBounds"/>
                    </mxGeometry>
                </mxCell>
                <mxCell id="4ok2Pce4mK_eoCCH2V8g-87" value="Warehouse" style="shape=table;startSize=30;container=1;collapsible=1;childLayout=tableLayout;fixedRows=1;rowLines=0;fontStyle=1;align=center;resizeLast=1;" vertex="1" parent="-pJ-adx-EopEpAzPijO_-1">
                    <mxGeometry x="-700" y="610" width="150" height="90" as="geometry">
                        <mxRectangle x="-190" y="550" width="90" height="30" as="alternateBounds"/>
                    </mxGeometry>
                </mxCell>
                <mxCell id="4ok2Pce4mK_eoCCH2V8g-88" value="" style="shape=partialRectangle;collapsible=0;dropTarget=0;pointerEvents=0;fillColor=none;top=0;left=0;bottom=1;right=0;points=[[0,0.5],[1,0.5]];portConstraint=eastwest;" vertex="1" parent="4ok2Pce4mK_eoCCH2V8g-87">
                    <mxGeometry y="30" width="150" height="30" as="geometry"/>
                </mxCell>
                <mxCell id="4ok2Pce4mK_eoCCH2V8g-89" value="PK" style="shape=partialRectangle;connectable=0;fillColor=none;top=0;left=0;bottom=0;right=0;fontStyle=1;overflow=hidden;" vertex="1" parent="4ok2Pce4mK_eoCCH2V8g-88">
                    <mxGeometry width="40" height="30" as="geometry">
                        <mxRectangle width="40" height="30" as="alternateBounds"/>
                    </mxGeometry>
                </mxCell>
                <mxCell id="4ok2Pce4mK_eoCCH2V8g-90" value="Warehouse_id" style="shape=partialRectangle;connectable=0;fillColor=none;top=0;left=0;bottom=0;right=0;align=left;spacingLeft=6;fontStyle=5;overflow=hidden;" vertex="1" parent="4ok2Pce4mK_eoCCH2V8g-88">
                    <mxGeometry x="40" width="110" height="30" as="geometry">
                        <mxRectangle width="110" height="30" as="alternateBounds"/>
                    </mxGeometry>
                </mxCell>
                <mxCell id="4ok2Pce4mK_eoCCH2V8g-91" value="" style="shape=partialRectangle;collapsible=0;dropTarget=0;pointerEvents=0;fillColor=none;top=0;left=0;bottom=0;right=0;points=[[0,0.5],[1,0.5]];portConstraint=eastwest;" vertex="1" parent="4ok2Pce4mK_eoCCH2V8g-87">
                    <mxGeometry y="60" width="150" height="30" as="geometry"/>
                </mxCell>
                <mxCell id="4ok2Pce4mK_eoCCH2V8g-92" value="FK" style="shape=partialRectangle;connectable=0;fillColor=none;top=0;left=0;bottom=0;right=0;editable=1;overflow=hidden;" vertex="1" parent="4ok2Pce4mK_eoCCH2V8g-91">
                    <mxGeometry width="40" height="30" as="geometry">
                        <mxRectangle width="40" height="30" as="alternateBounds"/>
                    </mxGeometry>
                </mxCell>
                <mxCell id="4ok2Pce4mK_eoCCH2V8g-93" value="Product_ID : int" style="shape=partialRectangle;connectable=0;fillColor=none;top=0;left=0;bottom=0;right=0;align=left;spacingLeft=6;overflow=hidden;" vertex="1" parent="4ok2Pce4mK_eoCCH2V8g-91">
                    <mxGeometry x="40" width="110" height="30" as="geometry">
                        <mxRectangle width="110" height="30" as="alternateBounds"/>
                    </mxGeometry>
                </mxCell>
                <mxCell id="4ok2Pce4mK_eoCCH2V8g-95" value="" style="edgeStyle=entityRelationEdgeStyle;fontSize=12;html=1;endArrow=ERmandOne;startArrow=ERmandOne;entryX=1;entryY=0.5;entryDx=0;entryDy=0;exitX=0.299;exitY=0.005;exitDx=0;exitDy=0;exitPerimeter=0;" edge="1" parent="-pJ-adx-EopEpAzPijO_-1" source="4ok2Pce4mK_eoCCH2V8g-70" target="4ok2Pce4mK_eoCCH2V8g-45">
                    <mxGeometry width="100" height="100" relative="1" as="geometry">
                        <mxPoint x="-280" y="410" as="sourcePoint"/>
                        <mxPoint x="-180" y="310" as="targetPoint"/>
                    </mxGeometry>
                </mxCell>
                <mxCell id="4ok2Pce4mK_eoCCH2V8g-96" value="" style="edgeStyle=entityRelationEdgeStyle;fontSize=12;html=1;endArrow=ERmandOne;startArrow=ERmandOne;entryX=1;entryY=0.5;entryDx=0;entryDy=0;exitX=0.299;exitY=0.005;exitDx=0;exitDy=0;exitPerimeter=0;" edge="1" parent="-pJ-adx-EopEpAzPijO_-1">
                    <mxGeometry width="100" height="100" relative="1" as="geometry">
                        <mxPoint x="-270" y="435.4499999999998" as="sourcePoint"/>
                        <mxPoint x="-309.8499999999999" y="330" as="targetPoint"/>
                    </mxGeometry>
                </mxCell>
                <mxCell id="4ok2Pce4mK_eoCCH2V8g-97" value="" style="edgeStyle=entityRelationEdgeStyle;fontSize=12;html=1;endArrow=ERmandOne;startArrow=ERmandOne;exitX=0.25;exitY=0;exitDx=0;exitDy=0;" edge="1" parent="-pJ-adx-EopEpAzPijO_-1" source="4ok2Pce4mK_eoCCH2V8g-77">
                    <mxGeometry width="100" height="100" relative="1" as="geometry">
                        <mxPoint x="-260" y="590" as="sourcePoint"/>
                        <mxPoint x="-160" y="490" as="targetPoint"/>
                    </mxGeometry>
                </mxCell>
                <mxCell id="4ok2Pce4mK_eoCCH2V8g-98" value="" style="edgeStyle=entityRelationEdgeStyle;fontSize=12;html=1;endArrow=ERmandOne;startArrow=ERmandOne;exitX=0.984;exitY=0.015;exitDx=0;exitDy=0;exitPerimeter=0;entryX=1;entryY=0.5;entryDx=0;entryDy=0;" edge="1" parent="-pJ-adx-EopEpAzPijO_-1" source="4ok2Pce4mK_eoCCH2V8g-88" target="4ok2Pce4mK_eoCCH2V8g-10">
                    <mxGeometry width="100" height="100" relative="1" as="geometry">
                        <mxPoint x="-380" y="590" as="sourcePoint"/>
                        <mxPoint x="-650" y="590" as="targetPoint"/>
                    </mxGeometry>
                </mxCell>
                <mxCell id="odGYAV62MEuz7PnCn48p-0" value="Customer" style="shape=table;startSize=30;container=1;collapsible=1;childLayout=tableLayout;fixedRows=1;rowLines=0;fontStyle=1;align=center;resizeLast=1;" vertex="1" parent="-pJ-adx-EopEpAzPijO_-1">
                    <mxGeometry x="-180" width="180" height="210" as="geometry"/>
                </mxCell>
                <mxCell id="odGYAV62MEuz7PnCn48p-1" value="" style="shape=partialRectangle;collapsible=0;dropTarget=0;pointerEvents=0;fillColor=none;top=0;left=0;bottom=1;right=0;points=[[0,0.5],[1,0.5]];portConstraint=eastwest;" vertex="1" parent="odGYAV62MEuz7PnCn48p-0">
                    <mxGeometry y="30" width="180" height="30" as="geometry"/>
                </mxCell>
                <mxCell id="odGYAV62MEuz7PnCn48p-2" value="PK" style="shape=partialRectangle;connectable=0;fillColor=none;top=0;left=0;bottom=0;right=0;fontStyle=1;overflow=hidden;" vertex="1" parent="odGYAV62MEuz7PnCn48p-1">
                    <mxGeometry width="30" height="30" as="geometry">
                        <mxRectangle width="30" height="30" as="alternateBounds"/>
                    </mxGeometry>
                </mxCell>
                <mxCell id="odGYAV62MEuz7PnCn48p-3" value="Customer_ID:int" style="shape=partialRectangle;connectable=0;fillColor=none;top=0;left=0;bottom=0;right=0;align=left;spacingLeft=6;fontStyle=5;overflow=hidden;" vertex="1" parent="odGYAV62MEuz7PnCn48p-1">
                    <mxGeometry x="30" width="150" height="30" as="geometry">
                        <mxRectangle width="150" height="30" as="alternateBounds"/>
                    </mxGeometry>
                </mxCell>
                <mxCell id="odGYAV62MEuz7PnCn48p-4" value="" style="shape=partialRectangle;collapsible=0;dropTarget=0;pointerEvents=0;fillColor=none;top=0;left=0;bottom=0;right=0;points=[[0,0.5],[1,0.5]];portConstraint=eastwest;" vertex="1" parent="odGYAV62MEuz7PnCn48p-0">
                    <mxGeometry y="60" width="180" height="30" as="geometry"/>
                </mxCell>
                <mxCell id="odGYAV62MEuz7PnCn48p-5" value="" style="shape=partialRectangle;connectable=0;fillColor=none;top=0;left=0;bottom=0;right=0;editable=1;overflow=hidden;" vertex="1" parent="odGYAV62MEuz7PnCn48p-4">
                    <mxGeometry width="30" height="30" as="geometry">
                        <mxRectangle width="30" height="30" as="alternateBounds"/>
                    </mxGeometry>
                </mxCell>
                <mxCell id="odGYAV62MEuz7PnCn48p-6" value="Name: string   " style="shape=partialRectangle;connectable=0;fillColor=none;top=0;left=0;bottom=0;right=0;align=left;spacingLeft=6;overflow=hidden;" vertex="1" parent="odGYAV62MEuz7PnCn48p-4">
                    <mxGeometry x="30" width="150" height="30" as="geometry">
                        <mxRectangle width="150" height="30" as="alternateBounds"/>
                    </mxGeometry>
                </mxCell>
                <mxCell id="odGYAV62MEuz7PnCn48p-7" value="" style="shape=partialRectangle;collapsible=0;dropTarget=0;pointerEvents=0;fillColor=none;top=0;left=0;bottom=0;right=0;points=[[0,0.5],[1,0.5]];portConstraint=eastwest;" vertex="1" parent="odGYAV62MEuz7PnCn48p-0">
                    <mxGeometry y="90" width="180" height="30" as="geometry"/>
                </mxCell>
                <mxCell id="odGYAV62MEuz7PnCn48p-8" value="" style="shape=partialRectangle;connectable=0;fillColor=none;top=0;left=0;bottom=0;right=0;editable=1;overflow=hidden;" vertex="1" parent="odGYAV62MEuz7PnCn48p-7">
                    <mxGeometry width="30" height="30" as="geometry">
                        <mxRectangle width="30" height="30" as="alternateBounds"/>
                    </mxGeometry>
                </mxCell>
                <mxCell id="odGYAV62MEuz7PnCn48p-9" value="Email: string" style="shape=partialRectangle;connectable=0;fillColor=none;top=0;left=0;bottom=0;right=0;align=left;spacingLeft=6;overflow=hidden;" vertex="1" parent="odGYAV62MEuz7PnCn48p-7">
                    <mxGeometry x="30" width="150" height="30" as="geometry">
                        <mxRectangle width="150" height="30" as="alternateBounds"/>
                    </mxGeometry>
                </mxCell>
                <mxCell id="odGYAV62MEuz7PnCn48p-10" value="" style="shape=partialRectangle;collapsible=0;dropTarget=0;pointerEvents=0;fillColor=none;top=0;left=0;bottom=0;right=0;points=[[0,0.5],[1,0.5]];portConstraint=eastwest;" vertex="1" parent="odGYAV62MEuz7PnCn48p-0">
                    <mxGeometry y="120" width="180" height="30" as="geometry"/>
                </mxCell>
                <mxCell id="odGYAV62MEuz7PnCn48p-11" value="" style="shape=partialRectangle;connectable=0;fillColor=none;top=0;left=0;bottom=0;right=0;editable=1;overflow=hidden;fontStyle=1" vertex="1" parent="odGYAV62MEuz7PnCn48p-10">
                    <mxGeometry width="30" height="30" as="geometry">
                        <mxRectangle width="30" height="30" as="alternateBounds"/>
                    </mxGeometry>
                </mxCell>
                <mxCell id="odGYAV62MEuz7PnCn48p-12" value="Adress:string" style="shape=partialRectangle;connectable=0;fillColor=none;top=0;left=0;bottom=0;right=0;align=left;spacingLeft=6;overflow=hidden;fontStyle=1" vertex="1" parent="odGYAV62MEuz7PnCn48p-10">
                    <mxGeometry x="30" width="150" height="30" as="geometry">
                        <mxRectangle width="150" height="30" as="alternateBounds"/>
                    </mxGeometry>
                </mxCell>
                <mxCell id="odGYAV62MEuz7PnCn48p-13" value="" style="shape=partialRectangle;collapsible=0;dropTarget=0;pointerEvents=0;fillColor=none;top=0;left=0;bottom=0;right=0;points=[[0,0.5],[1,0.5]];portConstraint=eastwest;" vertex="1" parent="odGYAV62MEuz7PnCn48p-0">
                    <mxGeometry y="150" width="180" height="30" as="geometry"/>
                </mxCell>
                <mxCell id="odGYAV62MEuz7PnCn48p-14" value="" style="shape=partialRectangle;connectable=0;fillColor=none;top=0;left=0;bottom=0;right=0;editable=1;overflow=hidden;fontStyle=1" vertex="1" parent="odGYAV62MEuz7PnCn48p-13">
                    <mxGeometry width="30" height="30" as="geometry">
                        <mxRectangle width="30" height="30" as="alternateBounds"/>
                    </mxGeometry>
                </mxCell>
                <mxCell id="odGYAV62MEuz7PnCn48p-15" value="User_name:string" style="shape=partialRectangle;connectable=0;fillColor=none;top=0;left=0;bottom=0;right=0;align=left;spacingLeft=6;overflow=hidden;fontStyle=1" vertex="1" parent="odGYAV62MEuz7PnCn48p-13">
                    <mxGeometry x="30" width="150" height="30" as="geometry">
                        <mxRectangle width="150" height="30" as="alternateBounds"/>
                    </mxGeometry>
                </mxCell>
                <mxCell id="odGYAV62MEuz7PnCn48p-16" value="" style="shape=partialRectangle;collapsible=0;dropTarget=0;pointerEvents=0;fillColor=none;top=0;left=0;bottom=0;right=0;points=[[0,0.5],[1,0.5]];portConstraint=eastwest;" vertex="1" parent="odGYAV62MEuz7PnCn48p-0">
                    <mxGeometry y="180" width="180" height="30" as="geometry"/>
                </mxCell>
                <mxCell id="odGYAV62MEuz7PnCn48p-17" value="FK" style="shape=partialRectangle;connectable=0;fillColor=none;top=0;left=0;bottom=0;right=0;editable=1;overflow=hidden;fontStyle=1" vertex="1" parent="odGYAV62MEuz7PnCn48p-16">
                    <mxGeometry width="30" height="30" as="geometry">
                        <mxRectangle width="30" height="30" as="alternateBounds"/>
                    </mxGeometry>
                </mxCell>
                <mxCell id="odGYAV62MEuz7PnCn48p-18" value="Zip_ID" style="shape=partialRectangle;connectable=0;fillColor=none;top=0;left=0;bottom=0;right=0;align=left;spacingLeft=6;overflow=hidden;fontStyle=1" vertex="1" parent="odGYAV62MEuz7PnCn48p-16">
                    <mxGeometry x="30" width="150" height="30" as="geometry">
                        <mxRectangle width="150" height="30" as="alternateBounds"/>
                    </mxGeometry>
                </mxCell>
                <mxCell id="Riu1uLcmu1rhmrfLaZAw-0" value="" style="edgeStyle=entityRelationEdgeStyle;fontSize=12;html=1;endArrow=ERone;endFill=1;entryX=-0.007;entryY=-0.267;entryDx=0;entryDy=0;entryPerimeter=0;" edge="1" parent="-pJ-adx-EopEpAzPijO_-1" target="4ok2Pce4mK_eoCCH2V8g-84">
                    <mxGeometry width="100" height="100" relative="1" as="geometry">
                        <mxPoint x="-530" y="700" as="sourcePoint"/>
                        <mxPoint x="-430" y="600" as="targetPoint"/>
                    </mxGeometry>
                </mxCell>
                <mxCell id="Riu1uLcmu1rhmrfLaZAw-1" value="" style="edgeStyle=entityRelationEdgeStyle;fontSize=12;html=1;endArrow=ERzeroToMany;startArrow=ERmandOne;exitX=0;exitY=0;exitDx=0;exitDy=0;" edge="1" parent="-pJ-adx-EopEpAzPijO_-1" source="4ok2Pce4mK_eoCCH2V8g-34">
                    <mxGeometry width="100" height="100" relative="1" as="geometry">
                        <mxPoint x="-610" y="440" as="sourcePoint"/>
                        <mxPoint x="-510" y="340" as="targetPoint"/>
                    </mxGeometry>
                </mxCell>
                <mxCell id="Riu1uLcmu1rhmrfLaZAw-2" value="&lt;meta charset=&quot;utf-8&quot;&gt;&lt;span style=&quot;color: rgb(240, 240, 240); font-family: helvetica; font-size: 12px; font-style: normal; font-weight: 700; letter-spacing: normal; text-align: left; text-indent: 0px; text-transform: none; word-spacing: 0px; background-color: rgb(42, 42, 42); text-decoration: underline; display: inline; float: none;&quot;&gt;Warehouse_id&lt;/span&gt;" style="text;whiteSpace=wrap;html=1;" vertex="1" parent="-pJ-adx-EopEpAzPijO_-1">
                    <mxGeometry x="-190" y="630" width="110" height="30" as="geometry"/>
                </mxCell>
                <mxCell id="Riu1uLcmu1rhmrfLaZAw-4" value="&lt;meta charset=&quot;utf-8&quot;&gt;&lt;span style=&quot;color: rgb(240, 240, 240); font-family: helvetica; font-size: 12px; font-style: normal; font-weight: 400; letter-spacing: normal; text-align: center; text-indent: 0px; text-transform: none; word-spacing: 0px; background-color: rgb(42, 42, 42); display: inline; float: none;&quot;&gt;zip: int&lt;/span&gt;" style="text;whiteSpace=wrap;html=1;" vertex="1" parent="-pJ-adx-EopEpAzPijO_-1">
                    <mxGeometry x="-120" y="500" width="60" height="30" as="geometry"/>
                </mxCell>
                <mxCell id="Riu1uLcmu1rhmrfLaZAw-5" value="Zip" style="shape=table;startSize=30;container=1;collapsible=1;childLayout=tableLayout;fixedRows=1;rowLines=0;fontStyle=1;align=center;resizeLast=1;" vertex="1" parent="-pJ-adx-EopEpAzPijO_-1">
                    <mxGeometry x="-470" y="-10" width="150" height="140" as="geometry"/>
                </mxCell>
                <mxCell id="Riu1uLcmu1rhmrfLaZAw-6" value="" style="shape=partialRectangle;collapsible=0;dropTarget=0;pointerEvents=0;fillColor=none;top=0;left=0;bottom=1;right=0;points=[[0,0.5],[1,0.5]];portConstraint=eastwest;" vertex="1" parent="Riu1uLcmu1rhmrfLaZAw-5">
                    <mxGeometry y="30" width="150" height="30" as="geometry"/>
                </mxCell>
                <mxCell id="Riu1uLcmu1rhmrfLaZAw-7" value="PK" style="shape=partialRectangle;connectable=0;fillColor=none;top=0;left=0;bottom=0;right=0;fontStyle=1;overflow=hidden;" vertex="1" parent="Riu1uLcmu1rhmrfLaZAw-6">
                    <mxGeometry width="40" height="30" as="geometry">
                        <mxRectangle width="40" height="30" as="alternateBounds"/>
                    </mxGeometry>
                </mxCell>
                <mxCell id="Riu1uLcmu1rhmrfLaZAw-8" value="Zip_ID" style="shape=partialRectangle;connectable=0;fillColor=none;top=0;left=0;bottom=0;right=0;align=left;spacingLeft=6;fontStyle=5;overflow=hidden;" vertex="1" parent="Riu1uLcmu1rhmrfLaZAw-6">
                    <mxGeometry x="40" width="110" height="30" as="geometry">
                        <mxRectangle width="110" height="30" as="alternateBounds"/>
                    </mxGeometry>
                </mxCell>
                <mxCell id="Riu1uLcmu1rhmrfLaZAw-9" value="" style="shape=partialRectangle;collapsible=0;dropTarget=0;pointerEvents=0;fillColor=none;top=0;left=0;bottom=0;right=0;points=[[0,0.5],[1,0.5]];portConstraint=eastwest;" vertex="1" parent="Riu1uLcmu1rhmrfLaZAw-5">
                    <mxGeometry y="60" width="150" height="30" as="geometry"/>
                </mxCell>
                <mxCell id="Riu1uLcmu1rhmrfLaZAw-10" value="" style="shape=partialRectangle;connectable=0;fillColor=none;top=0;left=0;bottom=0;right=0;editable=1;overflow=hidden;" vertex="1" parent="Riu1uLcmu1rhmrfLaZAw-9">
                    <mxGeometry width="40" height="30" as="geometry">
                        <mxRectangle width="40" height="30" as="alternateBounds"/>
                    </mxGeometry>
                </mxCell>
                <mxCell id="Riu1uLcmu1rhmrfLaZAw-11" value="country:string" style="shape=partialRectangle;connectable=0;fillColor=none;top=0;left=0;bottom=0;right=0;align=left;spacingLeft=6;overflow=hidden;" vertex="1" parent="Riu1uLcmu1rhmrfLaZAw-9">
                    <mxGeometry x="40" width="110" height="30" as="geometry">
                        <mxRectangle width="110" height="30" as="alternateBounds"/>
                    </mxGeometry>
                </mxCell>
                <mxCell id="Riu1uLcmu1rhmrfLaZAw-12" value="&lt;meta charset=&quot;utf-8&quot;&gt;&lt;span style=&quot;color: rgb(240, 240, 240); font-family: helvetica; font-size: 12px; font-style: normal; font-weight: 700; letter-spacing: normal; text-align: left; text-indent: 0px; text-transform: none; word-spacing: 0px; background-color: rgb(42, 42, 42); text-decoration: underline; display: inline; float: none;&quot;&gt;Zip_ID&lt;/span&gt;" style="text;whiteSpace=wrap;html=1;" vertex="1" parent="-pJ-adx-EopEpAzPijO_-1">
                    <mxGeometry x="-670" y="700" width="60" height="30" as="geometry"/>
                </mxCell>
                <mxCell id="Riu1uLcmu1rhmrfLaZAw-14" value="" style="edgeStyle=none;html=1;" edge="1" parent="-pJ-adx-EopEpAzPijO_-1" source="Riu1uLcmu1rhmrfLaZAw-13" target="Riu1uLcmu1rhmrfLaZAw-9">
                    <mxGeometry relative="1" as="geometry"/>
                </mxCell>
                <mxCell id="Riu1uLcmu1rhmrfLaZAw-13" value="zip:int" style="text;html=1;align=center;verticalAlign=middle;resizable=0;points=[];autosize=1;strokeColor=none;fillColor=none;" vertex="1" parent="-pJ-adx-EopEpAzPijO_-1">
                    <mxGeometry x="-435" y="80" width="50" height="20" as="geometry"/>
                </mxCell>
                <mxCell id="Riu1uLcmu1rhmrfLaZAw-15" value="&lt;meta charset=&quot;utf-8&quot;&gt;&lt;span style=&quot;color: rgb(240, 240, 240); font-family: helvetica; font-size: 12px; font-style: normal; font-weight: 400; letter-spacing: normal; text-align: center; text-indent: 0px; text-transform: none; word-spacing: 0px; background-color: rgb(42, 42, 42); display: inline; float: none;&quot;&gt;FK&lt;/span&gt;" style="text;whiteSpace=wrap;html=1;" vertex="1" parent="-pJ-adx-EopEpAzPijO_-1">
                    <mxGeometry x="-690" y="700" width="40" height="30" as="geometry"/>
                </mxCell>
            </root>
        </mxGraphModel>
    </diagram>
</mxfile>